<svg width="0" height="0" class="hidden">
  <symbol fill="none" xmlns="http://www.w3.org/2000/svg" viewBox="0 0 45 45" id="facebook">
    <g clip-path="url(#clip0)">
      <path d="M22.5-.062c14.5-1.074 24 9.5 22.5 22.5s-10.5 24-22.5 22.5S0 34.864 0 22.438C0 10.01 8 1.012 22.5-.062z" fill="#0071BC"></path>
      <path d="M28.701 8.606c.168.041.309.175.299.432-.058 1.285-.12 2.575-.409 3.825.037.35-.157.759-.518.706-2.575-.38-3.511 2.207-3.846 5.12 1.224.082 2.438.188 3.621.304.22.024.34.193.366.38.063.046.12.116.147.222.21.759.214 1.611.23 2.405.01.625.079 1.331-.298 1.828.047.291-.094.63-.445.642-1.256.017-2.528.04-3.804.053 0 .14 0 .28-.006.408-.089 3.813.058 7.614.021 11.42-.005.298-.22.41-.413.368-.026.018-.053.041-.084.053-.644.228-1.371.193-2.04.216-.665.017-1.32.035-1.979-.093-.162.058-.361 0-.398-.24-.591-3.772-.492-7.754-.476-11.572v-.718a36.35 36.35 0 01-3.098-.356.292.292 0 01-.246-.28c-.377-.28-.288-1.017-.293-1.478-.016-.992-.115-2.143.141-3.1a.34.34 0 01.168-.21.307.307 0 01.21-.111 33.552 33.552 0 013.196-.263c.053-1.098.142-2.195.294-3.27.716-5.126 4.657-8.238 9.31-7.041a.493.493 0 01.35.35z" fill="#fff"></path>
    </g>
    <defs>
      <clipPath id="clip0">
        <path fill="#fff" d="M0 0h45v45H0z"></path>
      </clipPath>
    </defs>
  </symbol>
  <symbol fill="none" xmlns="http://www.w3.org/2000/svg" viewBox="0 0 46 47" id="twitter">
    <path d="M22.655.938c-14.5-1.074-24 9.5-22.5 22.5s10.5 24 22.5 22.5 22.5-10.074 22.5-22.5c0-12.427-8-21.426-22.5-22.5z" fill="#1DA1F2"></path>
    <path d="M11.601 29.432c-.185-.249-.014-.722.405-.687 1.68.13 3.157.244 4.63-.776.195-.136.377-.294.552-.468-2.192.121-4.927-2.761-5.182-3.771-.14-.544.126-1.091.745-1.153.398-.043 2.4.016 2.587.071-1.894-1.345-2.706-5.075-2.195-4.865 2.767 1.125 5.805 2.276 8.617 1.82.203-.034.43-.066.666-.092.318-2.605-.607-5.496 4.257-7.256 3.59-1.3 6.244 1.477 6.86 3.583.123.151 1.482-.067 2.057-.175.242-.042.44.14.48.357.166.925-.625 1.435-1.297 1.955.658.104 1.301.251 1.818.669a.42.42 0 010 .67c-.598.473-1.315.61-2.053.67-.431 1.248-1.59 2.245-2.842 2.883.078 1.35-.042 2.703-.55 4.058-1.09 2.876-3.51 5.256-6.307 6.572-4.736 2.224-11.126.77-13.239-4.023-.006-.016-.006-.025-.009-.042z" fill="#fff"></path>
  </symbol>
  <symbol fill="none" xmlns="http://www.w3.org/2000/svg" viewBox="0 0 46 46" id="OK">
    <path d="M22.655 45.137c-14.5 1.074-24-9.5-22.5-22.5s10.5-24 22.5-22.5 22.5 10.074 22.5 22.5c0 12.427-8 21.426-22.5 22.5z" fill="#EE8108"></path>
    <g clip-path="url(#clip0)" fill="#fff">
      <path d="M23 23.748c3.886 0 6.913-3.44 6.913-7.475S26.886 9.137 23 9.137c-3.885 0-7.273 3.68-7.273 7.714.004 4.033 3.39 6.893 7.273 6.898zm0-11.239c2.093 0 4.076 1.591 4.076 3.764 0 2.172-1.983 4.104-4.076 4.104-2.092 0-3.869-1.353-3.869-3.526 0-2.172 1.777-4.342 3.87-4.342z"></path>
      <path d="M29.45 27.21c.765-.523 1.667-1.41 1.668-2.36a2.049 2.049 0 00-1.1-1.86 1.994 1.994 0 00-2.166.211c-2.89 2.189-5.884 2.329-9.703 0a2.004 2.004 0 00-2.164-.211 2.05 2.05 0 00-1.102 1.859c.002.95.647 1.838 1.41 2.361.981.677 1.864 1.206 2.988 1.573.19.061.387.118.59.17L16.6 32.275a2.31 2.31 0 00-.047 3.178 2.108 2.108 0 003.114-.007S22.33 31.401 23 31.863c.67.462 3.508 3.503 3.508 3.503.832.891 2.035 1.002 2.893.138a2.31 2.31 0 00-.004-3.234l-3.265-3.318c.202-.054.4-.111.592-.172 1.122-.365 1.747-.894 2.726-1.57z"></path>
    </g>
    <defs>
      <clipPath id="clip0">
        <path fill="#fff" transform="translate(10 9.137)" d="M0 0h26v27H0z"></path>
      </clipPath>
    </defs>
  </symbol>
  <symbol fill="none" xmlns="http://www.w3.org/2000/svg" viewBox="0 0 45 45" id="vk">
    <g clip-path="url(#clip0)">
      <path d="M22.5 45c14.5 1.074 24-9.5 22.5-22.5S34.5-1.5 22.5 0 0 10.074 0 22.5C0 34.927 8 43.926 22.5 45z" fill="#5181B8"></path>
      <path d="M34.544 16.934c.42.093.56.604.378.953-.122.245-.26.484-.394.724a.511.511 0 01-.229.419 40.782 40.782 0 01-4.058 6c-.006.005-.016.01-.022.021 1.769 1.247 5.997 4.431 3.93 6.223-1.08.941-4.212.783-5.426.25-.698-.305-1.332-.844-1.928-1.323-1.039-.833-1.332-.784-2.264.103-1.198 1.144-1.864 1.868-3.632 1.66-2.077-.244-4.074-1.426-5.661-2.754-3.334-2.803-6.333-7.512-7.227-11.851-.07-.338.213-.6.484-.605.016-.005.022-.01.038-.016a17.991 17.991 0 015.07-.18.628.628 0 01.362.164c.043.016.09.043.128.092 1.3 1.563 1.874 3.626 3.227 5.145.655.735.868.615.938-.398.032-.435.032-.87.01-1.306-.064-1.138-.469-2.134-.639-3.24a.616.616 0 01.075-.419.594.594 0 01.495-.495c1.582-.212 3.254-.016 4.857-.065a.484.484 0 01.543.19.338.338 0 01.245.262c.235 1.012.213 1.981.197 3.015l-.031 1.46c-.011.277-.011.555-.011.832-.107.512.09.708.586.588.836.093 1.065-.615 1.475-1.268.245-.386.48-.784.703-1.187.522-.947.91-1.943 1.395-2.907a.488.488 0 01.39-.283.42.42 0 01.164-.049c1.907-.044 3.957-.163 5.832.245z" fill="#fff"></path>
    </g>
    <defs>
      <clipPath id="clip0">
        <path fill="#fff" d="M0 0h45v45H0z"></path>
      </clipPath>
    </defs>
  </symbol>
</svg>
