<svg width="30" height="30" viewBox="0 0 30 30" fill="none" xmlns="http://www.w3.org/2000/svg">
<path d="M0.599918 15.078C0.117624 19.2526 1.40424 23.0112 3.9503 25.6394C6.49492 28.2661 10.3313 29.7979 15.0147 29.4515C19.7352 29.1022 23.3482 27.4697 25.7793 24.9621C28.2091 22.4558 29.5 19.0328 29.5 15.0206C29.5 7.10556 22.798 1.5621 14.9897 0.587291C11.1868 0.11253 7.8506 1.60864 5.32549 4.29067C2.79347 6.98006 1.08766 10.8562 0.599918 15.078Z" stroke="#376EB3"/>
<path d="M19.1889 11.2453C19.348 11.2004 19.5029 11.1383 19.6244 11.0328C20.1154 10.6051 20.4949 10.3468 20.6941 9.73148C21.0363 8.67522 19.9264 7.81698 18.8403 8.03408C17.5986 8.28223 17.1036 9.28468 16.4041 10.1777C15.7854 10.967 15.1987 11.7764 14.6023 12.5795C12.955 11.4959 11.2435 10.4501 9.38968 9.74163C8.15211 9.26839 7.468 11.0448 8.51113 11.6497C10.0923 12.566 11.6005 13.5765 13.086 14.6158C11.5804 16.6908 9.7984 19.1013 9.4273 21.5641C9.26341 22.6505 11.0094 23.6259 11.5797 22.3949C12.5184 20.3679 13.6905 18.5063 15.01 16.6665C15.1097 16.5278 15.2226 16.3969 15.324 16.2594C16.5172 17.2658 17.8102 18.4931 19.3135 18.6136C19.8814 18.6591 20.5443 18.0961 20.4664 17.5583C20.2407 16.0079 18.444 15.0113 16.9689 14.1241C17.2195 13.808 17.4539 13.4814 17.7065 13.1669C17.9902 12.8111 18.7106 11.8588 19.1889 11.2453Z" fill="#376EB3"/>
</svg>
