<svg width="52" height="45" viewBox="0 0 52 45" fill="none" xmlns="http://www.w3.org/2000/svg">
<path d="M26.1213 43.539L6.7638 24.2898C4.7463 22.25 3.40791 19.6429 2.92986 16.8216C2.45181 14.0003 2.85719 11.1011 4.09111 8.51649C5.44944 5.62324 7.78823 3.29751 10.6978 1.94678C12.5767 1.0669 14.627 0.608152 16.7038 0.602982C18.5243 0.595136 20.3285 0.943953 22.0134 1.62952C23.6982 2.31508 25.2309 3.32396 26.5237 4.59856C27.8211 3.31788 29.3603 2.30503 31.0527 1.61827C32.7453 0.93152 34.5577 0.584438 36.3856 0.597009C38.4625 0.60218 40.5128 1.06092 42.3916 1.94081C45.3011 3.29155 47.64 5.61725 48.9983 8.51052C50.2311 11.0925 50.6368 13.9886 50.161 16.8073C49.6852 19.6262 48.3505 22.2316 46.3377 24.2718L45.9172 24.7138L26.5717 43.9631L26.1213 43.539ZM26.5657 35.4403L43.5568 18.1202L44.2536 15.6954L44.0553 12.1836L42.6919 9.55569L40.0013 7.54894L36.6138 6.84419L32.2415 8.30147L26.7398 13.2765L22.848 9.35861L19.0041 7.22644L14.3194 7.30407L11.0161 9.22123L9.1542 12.9182L9.3524 18.2934L26.5657 35.4403Z" fill="white"/>
<path d="M36.3873 1.19461C38.3855 1.19417 40.3589 1.63478 42.1651 2.48467C44.9403 3.77769 47.1704 5.99949 48.4653 8.76172C49.6511 11.2415 50.0393 14.0244 49.5772 16.7315C49.1151 19.4385 47.8252 21.9382 45.8828 23.8899L45.5104 24.2603L26.5795 43.1212L7.62432 24.2841L7.25193 23.9137C5.30416 21.9633 4.00917 19.4623 3.54373 16.7527C3.07829 14.0431 3.46509 11.2566 4.65133 8.77365C5.94853 6.00394 8.18562 3.77725 10.9697 2.48467C12.7758 1.63459 14.7493 1.19397 16.7475 1.19461C18.5014 1.19014 20.2388 1.53027 21.8602 2.19544C23.4814 2.86063 24.9546 3.83776 26.195 5.07074L26.5674 5.44103L26.9397 5.07074C28.1801 3.83776 29.6534 2.86063 31.2746 2.19544C32.896 1.53027 34.6334 1.19014 36.3873 1.19461ZM26.7775 12.4467L23.228 8.86324L19.1679 6.61163L14.1649 6.69525L10.5613 8.77964L8.55525 12.7752L8.77147 18.5147L26.5975 36.2827L44.123 18.4311L44.8617 15.7614L44.6456 12.0227L43.15 9.17381L40.243 7.00582L36.5675 6.24134L31.9247 7.76432L26.7536 12.4407L26.7775 12.4467ZM36.3873 0.00012276C32.7541 -0.0147962 29.2484 1.3306 26.5674 3.76874C23.8864 1.3306 20.3806 -0.0147962 16.7475 0.00012276C14.5711 0.00144055 12.4218 0.480695 10.4532 1.40365C7.4231 2.81247 4.98698 5.23497 3.57024 8.24809C2.32908 10.8512 1.89202 13.7618 2.3143 16.612C2.73657 19.462 3.99924 22.1237 5.94262 24.2603L6.77747 25.1143L25.7145 43.9454L26.5553 44.7935L26.5913 44.7576L27.4323 43.9454L46.3692 25.1143L47.2161 24.2721C49.1596 22.1356 50.4222 19.474 50.8444 16.6239C51.2667 13.7738 50.8297 10.8631 49.5886 8.26004C48.1681 5.23839 45.7227 2.81088 42.6816 1.40365C40.7129 0.480881 38.5636 0.00163709 36.3873 0.00012276ZM32.5434 8.82741L36.6515 7.47763L39.7506 8.12266L42.2251 9.96815L43.4745 12.3571L43.6607 15.636L43.0599 17.8278L26.5733 34.5926L9.94264 18.013L9.75646 13.0499L11.4682 9.64565L14.4712 7.90168L18.8376 7.83001L22.4413 9.84272L25.8706 13.2948L26.6815 14.1071L27.5343 13.3366L32.5194 8.83339L32.5434 8.82741Z" fill="#A8A8A7"/>
<path d="M45.7258 10.1168C44.7418 8.00991 43.0396 6.31734 40.921 5.33882C39.0309 4.44546 36.9093 4.15419 34.8465 4.50481C32.7836 4.85544 30.8799 5.83085 29.3953 7.29779L26.5966 10.081L23.8398 7.32766C22.3542 5.86043 20.449 4.88536 18.3849 4.53579C16.3208 4.18621 14.1985 4.47919 12.3082 5.37466C10.1895 6.35317 8.48741 8.04575 7.50339 10.1526C6.605 12.0322 6.31209 14.1418 6.66468 16.1932C7.01728 18.2445 7.99818 20.1376 9.47337 21.6138L26.6026 38.6472L40.9331 24.397L43.7319 21.6138C45.2187 20.1375 46.2087 18.2393 46.5657 16.1803C46.923 14.1214 46.6294 12.003 45.7258 10.1168ZM41.4615 19.2427L36.2724 24.403L26.6626 33.9589L17.053 24.403L11.8638 19.2427C10.8779 18.2543 10.2225 16.9875 9.98714 15.6151C9.75176 14.2428 9.94776 12.8316 10.5484 11.5741C11.2052 10.1712 12.3389 9.04384 13.7497 8.39074C15.0143 7.79342 16.4334 7.59851 17.8135 7.83257C19.1935 8.06665 20.4674 8.71831 21.4614 9.69871L26.6507 14.8589L31.8399 9.69871C32.8338 8.71831 34.1077 8.06665 35.4878 7.83257C36.8679 7.59851 38.287 7.79342 39.5516 8.39074C40.9624 9.04384 42.0961 10.1712 42.7529 11.5741C43.3565 12.8293 43.5565 14.239 43.3255 15.6112C43.0942 16.9835 42.4434 18.2515 41.4615 19.2427Z" fill="#006EB7"/>
<path d="M42.7706 11.5751C42.1138 10.1722 40.9801 9.0449 39.5694 8.39181C38.3047 7.79449 36.8858 7.59957 35.5057 7.83364C34.1256 8.06771 32.8516 8.71938 31.8578 9.69978L26.6685 14.86L21.4792 9.69978C20.4853 8.71938 19.2114 8.06771 17.8313 7.83364C16.4512 7.59957 15.0321 7.79449 13.7675 8.39181C12.3567 9.0449 11.223 10.1722 10.5663 11.5751C9.96559 12.8327 9.76957 14.2438 10.005 15.6162C10.2403 16.9886 10.8957 18.2553 11.8816 19.2438L17.0708 24.404L26.6805 33.9599L36.2901 24.404L41.4794 19.2438C42.4613 18.2526 43.1121 16.9846 43.3432 15.6123C43.5743 14.24 43.3744 12.8303 42.7706 11.5751ZM39.119 16.9503L26.6925 29.2656L14.266 16.9384C13.766 16.4321 13.4353 15.7846 13.3193 15.0845C13.2032 14.3843 13.3073 13.6656 13.6173 13.0264C13.9524 12.314 14.5285 11.7411 15.245 11.4079C15.8893 11.1039 16.6124 11.005 17.3153 11.1248C18.0183 11.2445 18.667 11.5769 19.1729 12.0768L26.7105 19.5722L34.248 12.0768C34.7539 11.5769 35.4028 11.2445 36.1057 11.1248C36.8086 11.005 37.5317 11.1039 38.1761 11.4079C38.8925 11.7411 39.4685 12.314 39.8036 13.0264C40.1092 13.6691 40.2075 14.39 40.0849 15.0903C39.9624 15.7907 39.625 16.4362 39.119 16.9384V16.9503Z" fill="#E30613"/>
</svg>
