<svg width="685" height="511" viewBox="0 0 685 511" fill="none" xmlns="http://www.w3.org/2000/svg">
<g clip-path="url(#clip0)">
<mask id="mask0" mask-type="alpha" maskUnits="userSpaceOnUse" x="1" y="7" width="688" height="502">
<path fill-rule="evenodd" clip-rule="evenodd" d="M26.3329 208.42C28.6234 221.533 36.7188 231.067 51.0737 236.803C57.8756 232.211 59.4457 226.117 59.1745 219.404C58.5851 215.182 57.5924 211.013 56.2059 206.937C48.3365 185.107 57.864 165.858 70.8791 147.149C99.9261 117.881 127.093 86.1223 180.505 114.923C191.626 120.92 210.484 118.38 217.699 107.948C241.803 72.8643 282.374 79.2725 319.123 75.4819C318.139 72.3985 316.903 69.3791 315.422 66.4444C311.068 59.1578 306.052 51.5341 296.023 49.6464C254.828 41.5327 231.061 3.78189 181.769 7.66251C144.394 10.6383 114.216 21.5333 90.6419 45.8885C82.1298 56.3209 68.0271 60.9536 56.8069 68.5819L56.9365 68.5757C53.3804 72.3075 50.1868 76.2984 45.0428 78.8005L44.8393 78.8102C41.2422 87.9492 45.9773 99.6402 38.4149 106.511C2.65585 138.924 15.6416 173.625 26.4075 208.432" fill="#F38390"/>
<path fill-rule="evenodd" clip-rule="evenodd" d="M318.99 75.6563C311.788 73.4559 303.792 72.2274 297.452 68.8681C265.541 52.0046 243.953 64.1333 222.893 85.6253C195.66 113.383 181.569 113.945 152.832 87.6346C141.58 77.3408 143.32 78.2383 131.46 89.0628C109.292 109.29 65.9065 111.856 60.028 146.916C88.5754 159.85 109.156 135.195 134.865 134.756C148.254 131.96 161.477 127.779 175.526 130.298C181.341 132.025 186.612 134.772 190.984 138.355L198.938 146.324C204.187 151.987 209.22 157.813 217.26 161.061C228.451 162.98 238.545 167.095 248.975 170.797L256.415 171.577C261.537 171.073 266.537 169.846 271.197 167.95C306.143 150.439 343.994 147.493 383.055 150.631C386.248 146.427 388.396 141.751 389.37 136.885C388.132 117.753 384.2 100.679 353.407 103.642C328.393 105.703 333.42 82.5524 319.064 75.6528" fill="#F27181"/>
<path fill-rule="evenodd" clip-rule="evenodd" d="M599.586 347.689C676.621 294.639 694.384 224.721 687.212 147.705C677.341 141.642 676.293 130.856 669.207 123.478C655.987 109.813 637.142 103.808 617.294 110.163C592.226 118.165 597.1 135.055 604.276 151.083C609.62 159.405 617.03 165.154 629.392 164.489C637.104 164.399 636.839 156.45 643.021 154.757C641.328 158.772 636.741 160.466 633.405 163.284C601.65 166.424 578.567 183.169 554.861 198.699C528.237 207.205 511.6 226.01 492.052 241.649C479.892 251.45 483.105 262.579 493.904 271.425C504.993 280.55 517.602 290.125 533.364 276.741C548.585 263.721 566.937 254.317 584.222 243.719C596.044 236.563 606.861 219.218 622.224 227.171C637.587 235.124 634.86 252.56 628.991 267.072C626.863 270.847 625.073 274.744 623.244 278.597C620.33 284.053 617.68 289.62 614.897 295.117C611.251 302.233 606.953 309.118 602.041 315.71C596.862 322.488 592.602 329.515 592.653 337.674C593.447 341.584 595.904 345.097 599.582 347.581" fill="#F26B7E"/>
<path fill-rule="evenodd" clip-rule="evenodd" d="M614.969 150.693C617.87 139.979 598.645 128.171 614.251 119.673C628.097 112.103 645.146 118.205 656.742 126.008C666.945 132.773 672.608 144.092 686.89 147.276C690.889 108.767 658.588 88.7354 626.92 70.6358C605.187 58.1647 580.863 46.6751 552.23 45.8896C502.964 29.1626 472.154 69.8193 429.961 74.9815C425.515 76.7814 421.848 79.7007 419.499 83.3111C417.279 90.7278 419.053 98.3993 417.576 105.857C416.249 109.274 414.632 112.613 412.738 115.851C407.846 122.215 400.417 127.242 397.439 134.68C397.292 138.795 398.643 142.822 401.315 146.237L406.881 150.571C413.428 154.145 421.423 155.506 429.264 154.381C451.395 148.732 447.095 127.615 461.62 117.59C493.409 101.136 528.717 93.3883 564.611 87.2839C537.956 115.236 492.536 95.5825 462.94 116.347C460.741 117.773 459.095 119.704 458.215 121.889C457.335 124.074 457.263 126.412 458.008 128.599C461.717 131.955 466.353 134.519 471.537 136.08C499.854 140.038 530.286 136.277 555.999 150.061C575.408 155.454 594.968 158.617 615.007 150.722" fill="#F37784"/>
<path fill-rule="evenodd" clip-rule="evenodd" d="M258.618 414.929C278.456 446.878 313.679 465.737 346.374 486.729C356.404 492.615 367.328 491.665 378.475 488.906C390.967 465.256 358.785 460.639 352.585 444.903C338.024 421.448 308.063 405.675 305.181 376.562C306.374 367.164 305.647 357.704 303.031 348.582C298.197 336.362 290.978 325.7 275.917 320.192C215.5 342.049 212.445 358.718 258.581 414.93" fill="#CD2451"/>
<path fill-rule="evenodd" clip-rule="evenodd" d="M258.665 414.604C257.437 408.517 257.904 401.719 254.566 396.67C230.031 359.305 232.516 351.521 280.175 322.904L285.724 317.524C293.195 299.608 283.263 285.977 271.091 272.867C255.04 259.665 241.903 263.993 227.476 276.786C214.499 288.281 210.204 305.401 191.85 312.773L181.978 305.668C168.929 296.103 156.658 285.61 137.469 285.14C132.102 285.845 127.1 287.933 123.175 291.105C118.818 309.012 142.195 310.788 149.034 322.215C188.504 350.65 216.594 388.337 258.702 414.602" fill="#DF4967"/>
<path fill-rule="evenodd" clip-rule="evenodd" d="M380.942 485.189C369.401 485.738 357.772 486.399 346.196 487.011C359.196 504.214 382.765 502.326 402.371 507.365C410.22 509.447 419.723 507.982 423.341 502.131C447.934 461.832 505.631 448.297 531.236 406.891C545.549 383.661 576.556 367.25 600.027 347.79C598.659 344.784 597.85 341.614 597.627 338.387C575.95 332.525 559.582 341.132 544.221 352.624C513.898 371.75 499.917 402.732 469.959 422.163C441.063 437.153 418.22 458.395 391.295 475.395C387.715 478.527 384.25 481.747 380.939 485.097" fill="#CF3C61"/>
<path fill-rule="evenodd" clip-rule="evenodd" d="M423.294 81.18C443.753 83.2715 463.601 87.6737 480.644 70.8005C498.857 52.6619 525.314 47.8225 552.192 45.6124C500.688 19.6505 453.814 28.0013 410.33 61.5354C405.15 68.5347 393.779 67.191 387.97 73.3166L387.828 73.4612C393.073 95.0496 407.853 89.1105 423.334 81.2394" fill="#F37C8A"/>
<path fill-rule="evenodd" clip-rule="evenodd" d="M26.5167 208.318C26.5922 201.916 28.6308 194.912 26.4109 189.158C15.1045 160.318 24.9252 135.395 50.7632 115.709C73.4107 98.4202 59.3349 89.2918 44.99 78.5612C-8.06083 121.598 -10.5814 139.652 26.5192 208.379" fill="#F69BA5"/>
<path fill-rule="evenodd" clip-rule="evenodd" d="M149.047 321.87C147.238 308.318 130.792 302.659 125.368 291.032C126.062 271.011 103.174 256.541 108.131 235.487C101.97 210.658 91.4027 188.836 56.706 183.83C39.4915 193.136 43.3258 204.454 51.3141 216.174C62.9336 224.077 54.4544 237.872 63.5083 246.574C86.4088 276.05 106.79 307.475 149.047 321.87Z" fill="#E6576E"/>
<path fill-rule="evenodd" clip-rule="evenodd" d="M423.455 81.198C410.635 81.4393 396.918 84.2739 387.912 73.3938C371.35 79.6979 361.084 90.8496 353.157 103.918C374.664 110.331 379.146 124.899 378.789 141.771C386.698 147.541 394.251 146.321 401.564 140.549C401.681 137.471 401.72 134.319 401.799 131.212C407.685 125.016 418.692 126.213 424.751 120.163C424.621 116.943 424.603 113.748 424.547 110.524C431.02 103.686 430.72 97.1699 423.849 90.936C423.718 87.7002 423.494 84.4535 423.363 81.2024" fill="#F38491"/>
<path fill-rule="evenodd" clip-rule="evenodd" d="M56.7371 68.2986C74.7823 67.7474 86.7174 60.902 90.5656 45.6157C75.1484 48.8355 63.0037 55.5373 56.7371 68.2986Z" fill="#F69BA5"/>
<path fill-rule="evenodd" clip-rule="evenodd" d="M63.569 246.477C64.0883 234.961 66.1706 223.032 51.356 216.06C51.3392 222.999 51.3768 229.904 51.3786 236.842C53.4389 241.836 56.897 245.548 63.569 246.477Z" fill="#F1687B"/>
<path fill-rule="evenodd" clip-rule="evenodd" d="M388.015 73.1706C397.897 72.4402 406.529 70.1128 410.4 61.3711C400.908 62.6044 392.101 64.7254 388.015 73.1706Z" fill="#F38491"/>
<path fill-rule="evenodd" clip-rule="evenodd" d="M45.0967 78.4849C49.0607 75.0505 53.0257 71.6416 56.9917 68.2583C54.026 68.7948 51.3035 70.0583 49.181 71.8831C47.0584 73.708 45.6349 76.0091 45.0967 78.4849Z" fill="#F69BA5"/>
<path fill-rule="evenodd" clip-rule="evenodd" d="M51.2177 216.014C51.5983 205.244 48.2038 193.716 61.9825 186.057C68.3548 190.555 76.3422 193.211 84.7794 193.639C93.2167 194.066 101.662 192.242 108.884 188.433C117.657 182.578 123.154 174.575 129.164 166.855C137.343 153.21 152.206 140.721 142.247 123.638C109.418 117.198 88.852 142.691 60.1222 146.884C38.7577 168.668 27.2257 191.105 51.182 216.047" fill="#F1687B"/>
<path fill-rule="evenodd" clip-rule="evenodd" d="M136.619 290.552C152.811 299.578 169.034 308.602 185.288 317.625L185.292 317.733C186.463 325.615 187.782 333.491 201.561 340.574C210.733 317.597 223.246 296.55 241.113 277.781C249.648 268.838 257.319 272.91 265.99 274.678L274.092 274.293C279.366 273.098 284.433 271.307 289.148 268.97C298.418 263.554 305.865 257.043 307.339 247.192C290.526 184.73 290.581 185.173 364.189 173.533C380.762 170.887 406.669 174.937 403.049 148.653C394.694 145.979 386.744 145.989 379.449 151.219C362.11 149.126 347.617 124.819 337.939 132.987C315.576 151.97 273.859 136.404 261.682 167.14C257.968 170.618 254.073 171.002 249.926 167.914C237.439 163.901 224.51 167.741 218.721 175.371C192.215 209.721 150.269 231.601 119.237 262.159C115.176 275.879 123.702 284.149 136.543 290.509" fill="#E6576E"/>
<path fill-rule="evenodd" clip-rule="evenodd" d="M124.483 261.366C163.131 243.402 201.753 226.206 219.116 188.203C223.155 179.48 239.458 174.378 250.099 167.658C242.783 152.141 230.324 151.015 214.399 159.505L208.427 160.295C204.667 158.94 200.765 157.76 196.754 156.616C192 156.424 187.221 156.765 182.546 157.629C164.58 161.905 145.191 164.008 135.869 180.439C133.879 184.308 132.225 188.283 130.921 192.336C107.297 224.438 111.242 179.462 97.3684 184.617L62.0098 186.299C75.8845 204.558 97.3791 219.263 99.8001 242.946L102.898 248.076C107.005 252.656 112.126 256.539 117.998 259.526L124.485 261.396" fill="#F06377"/>
<path fill-rule="evenodd" clip-rule="evenodd" d="M144.194 182.399C158.545 165.544 186.333 173.437 202.351 159.759C209.011 153.023 208.583 146.547 201.735 140.377C194.388 135.612 196.204 126.419 188.949 121.65C173.013 113.025 157.442 114.365 142.158 123.738C134.724 137.002 127.271 150.262 119.799 163.518C122.955 174.195 123.769 187.01 144.195 182.429" fill="#E6576E"/>
<path fill-rule="evenodd" clip-rule="evenodd" d="M188.869 121.628C189.635 129.572 192.039 136.7 201.653 140.379C201.124 132.332 198.81 125.137 188.869 121.628Z" fill="#F06377"/>
<path fill-rule="evenodd" clip-rule="evenodd" d="M201.655 140.457C201.916 146.919 202.067 153.417 202.291 159.866L202.578 160.083C204.233 161.224 206.364 161.791 208.54 161.671C210.717 161.55 212.776 160.75 214.304 159.433C213.774 151.368 211.405 144.191 201.692 140.455" fill="#F06377"/>
<path fill-rule="evenodd" clip-rule="evenodd" d="M379.226 151.231L402.484 150.602L406.339 145.623L403.868 142.676L401.712 140.664L378.977 141.882C378.935 144.948 379.063 148.113 379.227 151.262" fill="#F37784"/>
<path fill-rule="evenodd" clip-rule="evenodd" d="M249.948 167.727C254.321 174.158 258.204 173.973 261.699 166.954C257.797 167.139 253.882 167.432 249.948 167.727Z" fill="#F06377"/>
<path fill-rule="evenodd" clip-rule="evenodd" d="M632.468 277.422C678.566 251.068 636.138 230.659 628.498 203.928C593.347 224.19 555.963 239.169 530.29 262.848C513.32 278.561 509.749 269.52 501.905 262.955C488.074 251.333 500.374 248.476 512.124 243.91C533.818 235.495 540.27 214.48 558.384 202.781L555.518 196.961C543.411 178.472 553.271 134.468 499.448 164.091C482.66 178.813 460.375 184.509 439.198 192.884C412.311 203.466 413.045 227.608 436.696 232.301C464.512 237.824 465.803 247.756 469.367 266.253C475.593 297.886 508.278 311.989 536.992 294.797C554.672 284.269 562.12 278.711 581.998 291.858C599.13 303.108 618.229 289.628 632.429 277.378" fill="#EE6175"/>
<path fill-rule="evenodd" clip-rule="evenodd" d="M632.525 277.405C615.403 276.683 599.609 293.72 582.445 282.784C563.301 270.574 552.555 270.748 531.843 286.728C508.776 304.51 478.27 285.036 479.039 251.754C479.546 232.157 488.487 215.308 451.084 229.302C442.919 232.348 429.205 223.276 430.96 210.748C432.002 203.017 439.717 198.041 447.197 199.636C483.365 207.379 494.576 184.292 509.699 165.813L507.231 159.785C496.361 144.939 472.171 143.217 461.333 128.262C461.21 125.195 461.028 122.085 460.79 118.932L460.618 118.802C433.86 117.755 441.308 142.427 426.232 150.15C418.879 186.127 381.231 220.228 413.576 258.617C445.601 262.486 450.559 289.766 470.459 304.167C474.367 307.131 478.717 309.669 483.408 311.724C524.773 322.814 567.887 315.708 610.193 317.536C619.272 312.802 620.993 305.377 621.191 297.425C625.461 294.364 628.014 290.11 632.189 286.977C632.338 283.774 632.449 280.573 632.562 277.403" fill="#EA566D"/>
<path fill-rule="evenodd" clip-rule="evenodd" d="M610.265 317.656C583.357 297.446 549.473 308.682 518.914 306.805C506.023 306.036 493.032 302.802 479.769 304.307L479.939 304.391C480.715 287.378 457.868 280.529 459.2 258.915C460.495 236.843 433.196 264.296 419.101 258.044C417.653 259.513 416.66 261.248 416.21 263.094C415.761 264.94 415.87 266.839 416.526 268.619C423.326 275.48 414.062 284.224 419.592 291.298C447.321 308.874 438.873 343.797 466.891 361.191C495.499 366.154 524.108 367.924 552.661 359.598C563.114 345.885 584.386 348.143 597.343 338.148C601.643 331.282 605.907 324.463 610.225 317.581" fill="#DA3C5E"/>
<path fill-rule="evenodd" clip-rule="evenodd" d="M615.07 151.08C599.227 148.538 583.39 145.985 567.559 143.422C533.958 160.373 563.971 183.065 558.031 202.554L558.221 202.668C589.37 193.832 614.411 176.966 639.08 159.58C629.402 159.948 620.513 158.743 615.147 151.138" fill="#EE6175"/>
<path fill-rule="evenodd" clip-rule="evenodd" d="M639.013 159.633C643.961 157.215 649.767 150.345 647.029 149.599C633.458 145.633 641.932 156.128 638.937 159.575" fill="#F37784"/>
<path fill-rule="evenodd" clip-rule="evenodd" d="M632.118 287.304C628.441 290.812 624.8 294.288 621.12 297.751C624.8 294.288 628.441 290.812 632.118 287.304Z" fill="#EE6175"/>
<path fill-rule="evenodd" clip-rule="evenodd" d="M419.362 267.24C419.23 263.974 419.099 260.724 419.097 257.468C412.9 233.909 407.098 209.595 428.792 189.086C445.183 173.607 433.368 162.419 426.388 149.773L404.025 142.696L402.642 150.672C386.208 167.858 362.91 161.947 342.334 163.325C285.023 167.097 267.023 191.392 291.278 235.687C294.419 241.39 299.418 246.297 299.891 252.941L307.235 256.263L315.594 254.851C321.166 252.46 325.612 248.558 328.172 243.812C330.732 239.065 331.248 233.768 329.632 228.824C323.08 211.196 331.912 196.722 352.438 196.851C375.095 196.986 360.358 218.101 367.548 228.126C389.175 237.189 375.549 278.432 419.418 267.237" fill="#DB395D"/>
<path fill-rule="evenodd" clip-rule="evenodd" d="M460.582 118.576C493.375 117.019 526.132 115.464 558.931 114.015C573.498 113.323 584.615 110.239 589.204 96.4093C593.364 83.8712 594.85 75.747 575.097 72.7651C542.654 67.905 480.35 91.7466 460.41 118.446L460.582 118.576Z" fill="#F37C8A"/>
<path fill-rule="evenodd" clip-rule="evenodd" d="M558.09 202.485C561.721 190.5 585.614 180.378 561.771 165.57C554.471 161.079 564.978 150.887 567.638 143.326C539.637 123.324 506.152 125.424 472.342 128.646C470.592 135.794 475.509 144.653 481.668 142.471C516.393 130.221 497.953 159.697 509.137 165.355L509.561 165.765C537.553 154.342 543.132 170.834 535.845 185.004C521.202 213.486 547.564 199.806 558.09 202.485Z" fill="#EA566D"/>
<path fill-rule="evenodd" clip-rule="evenodd" d="M509.145 165.157C527.69 131.478 483.828 141.272 472.359 128.521C468.648 128.406 464.935 128.244 461.222 128.083C453.599 133.451 456.075 138.308 461.632 143.295C474.554 154.857 492.395 159.29 509.148 165.218" fill="#D93C5B"/>
<path fill-rule="evenodd" clip-rule="evenodd" d="M423.86 90.9782C424.124 97.5286 424.389 104.064 424.652 110.583C436.403 103.492 436.139 96.9574 423.86 90.9782Z" fill="#F37C8A"/>
<path fill-rule="evenodd" clip-rule="evenodd" d="M424.829 120.246C415.191 121.041 406.515 123.171 401.896 131.27C411.574 130.55 420.309 128.494 424.829 120.246Z" fill="#F37C8A"/>
<path fill-rule="evenodd" clip-rule="evenodd" d="M458.321 354.342C464.186 324.614 459.57 298.951 420.792 287.086C413.932 293.13 411.111 300.873 407.72 308.304C392.97 340.314 383.336 380.535 327.24 341.229C321.973 337.576 313.376 345.147 305.819 345.845C300.915 346.553 296.443 348.704 293.229 351.9C293.629 361.81 293.863 371.728 294.225 381.609C344.459 385.505 337.161 420.189 344.023 447.267C342.447 469.321 368.451 472.556 380.973 485.025C385.119 484.827 389.29 484.767 393.422 484.678C405.221 466.841 401.269 445.695 412.151 428.102C412.083 429.642 415.001 422.448 413.272 428.786C411.544 435.124 414.941 426.924 413.84 433.647C428.654 444.546 442.253 442.362 455.14 430.805C483.295 405.565 451.54 379.779 458.321 354.342Z" fill="#D72453"/>
<path fill-rule="evenodd" clip-rule="evenodd" d="M344.173 447.186C347.656 437.937 353.425 428.78 354.27 419.412C358.285 376.944 347.034 370.179 294.382 381.537C291.777 385.456 286.25 392.328 287.07 392.888C309.673 408.44 318.586 433.973 344.173 447.186Z" fill="#DE3D5E"/>
<path fill-rule="evenodd" clip-rule="evenodd" d="M293.244 351.648C297.046 351.667 300.824 351.549 304.598 351.338C311.838 346.953 311.982 338.141 320.439 334.496C325.984 330.907 330.936 326.722 335.159 322.057C339.713 316.831 342.772 311.292 341.69 304.721C339.401 300.833 335.889 297.548 331.516 295.202C294.949 279.547 286.788 300.603 279.824 323.276L279.982 323.069C279.782 334.188 287.391 342.6 293.244 351.633" fill="#DE375D"/>
<path fill-rule="evenodd" clip-rule="evenodd" d="M279.779 323.197L285.403 322.422C293.734 299.179 315.464 299.666 337.813 301.215L341.693 295.853C341.524 291.651 340.085 287.578 337.507 284.006C329.32 273.641 327.26 259.834 312.658 253.123L300.157 253.012C292.674 256.871 285.223 260.749 277.804 264.646C274.231 268.218 270.392 271.603 266.31 274.78L266.11 274.882C267.732 291.628 283.104 305.447 279.798 323.196" fill="#D62353"/>
<path fill-rule="evenodd" clip-rule="evenodd" d="M136.853 290.359C132.755 280.738 128.657 271.107 124.558 261.465L124.351 261.368C117.598 254.142 109.354 247.976 99.9866 243.146L99.8515 243.014C90.5316 248.745 88.657 255.597 96.0218 262.992C105.476 272.533 115.474 281.755 125.272 291.079C129.123 290.896 132.932 290.622 136.779 290.363" fill="#D93959"/>
<path fill-rule="evenodd" clip-rule="evenodd" d="M458.146 354.62C432.773 358.713 430.362 371.51 444.637 384.925C458.294 397.755 459.17 409.32 449.394 423.326C454.525 431.051 466.648 426.543 472.955 432.2C482.377 431 495.266 429.849 497.456 422.591C505.609 395.028 534.329 380.658 552.873 359.863C522.665 346.101 489.962 354.519 458.146 354.62Z" fill="#D41C4D"/>
<path fill-rule="evenodd" clip-rule="evenodd" d="M473.134 432.236C468.191 424.12 459.132 423.277 449.573 423.363C438.304 436.18 426.546 437.339 414.208 425.045C380.469 439.024 378.763 460.091 393.438 484.786C426.915 474.442 443.788 446.682 473.131 432.175" fill="#DF4161"/>
<path fill-rule="evenodd" clip-rule="evenodd" d="M97.3758 184.506C103.151 208.124 103.151 208.124 123.403 227.996C139.311 219.264 144.226 206.446 144.653 191.752C133.822 185.276 120.101 187.097 108.257 183.527L97.3758 184.506Z" fill="#E6576E"/>
<path fill-rule="evenodd" clip-rule="evenodd" d="M108.207 183.487C112.425 208.514 132.11 190.032 144.6 191.711C144.624 188.637 144.555 185.568 144.224 182.403L119.821 163.484C111.041 168.28 108.739 175.55 108.133 183.491" fill="#DB3A60"/>
<path fill-rule="evenodd" clip-rule="evenodd" d="M266.216 274.685C270.064 271.276 273.858 267.901 277.707 264.523C273.858 267.901 270.064 271.276 266.216 274.685Z" fill="#DF4967"/>
<path fill-rule="evenodd" clip-rule="evenodd" d="M185.587 317.788L190.194 315.279C189.211 312.038 187.336 312.896 185.545 317.682L185.55 317.789" fill="#DF4967"/>
<path fill-rule="evenodd" clip-rule="evenodd" d="M100.044 243.121C102.195 247.488 105.493 251.384 109.702 254.532C113.911 257.68 118.928 260.002 124.396 261.332C123.244 248.883 115.173 242.739 100.044 243.121Z" fill="#E6576E"/>
<path fill-rule="evenodd" clip-rule="evenodd" d="M214.308 159.454L202.609 160.101C206.851 165.584 210.685 165.126 214.308 159.454Z" fill="#F27181"/>
<path fill-rule="evenodd" clip-rule="evenodd" d="M338.38 310.375C334.628 313.919 330.879 317.541 327.072 321.088C323.265 324.635 319.561 327.977 315.5 331.229C306.118 335.887 304.588 343.461 304.466 351.474C340.569 344.377 355.37 374.704 388.264 383.683C391.734 348.812 429.916 323.864 420.672 286.939C413.156 280.872 458.485 271.676 419.552 267.472C408.289 268.27 402.764 265.105 401.009 254.722C398.835 241.299 390.614 230.624 371.303 230.544L365.947 235.687C352.758 262.274 379.666 287.446 367.523 313.737C353.979 332.457 348.363 310.038 338.417 310.373" fill="#CF1A47"/>
<path fill-rule="evenodd" clip-rule="evenodd" d="M479.986 304.318C474.924 306.649 469.23 313.545 471.855 314.234C485.286 317.976 476.838 307.665 479.815 304.218L479.986 304.318Z" fill="#EA566D"/>
<path fill-rule="evenodd" clip-rule="evenodd" d="M312.464 253.107C321.187 265.561 307.278 288.716 337.579 291.041C344.634 269.55 364.685 252.852 370.534 230.911L371.255 230.369C374.494 220.99 379.185 211.711 380.639 202.248C382.094 192.785 382.96 181.151 370.843 176.07C358.103 170.757 348.996 178.647 340.834 186.492L330.945 191.575C296.769 197.583 289.151 208.815 317.84 229.098C321.565 231.749 321.612 237.974 323.376 242.579C319.811 246.208 316.855 250.192 312.526 253.258" fill="#CF1A47"/>
<path fill-rule="evenodd" clip-rule="evenodd" d="M312.586 253.072C316.15 249.507 319.825 245.937 323.445 242.4C319.769 245.94 316.187 249.506 312.586 253.072Z" fill="#D62353"/>
<path fill-rule="evenodd" clip-rule="evenodd" d="M414.139 424.998C429.946 423.385 438.099 417.297 434.832 402.501C419.983 406.711 419.595 417.317 414.139 424.998Z" fill="#D41C4D"/>
<path fill-rule="evenodd" clip-rule="evenodd" d="M338.425 310.367C339.635 315.059 339.766 320.141 342.161 324.331C346.15 331.243 349.228 342.24 358.869 341.689C373.783 340.78 373.177 328.542 374.275 318.975C368.243 305.121 359.374 294.937 338.447 300.805L337.784 301.375L338.425 310.367Z" fill="#D62353"/>
<path fill-rule="evenodd" clip-rule="evenodd" d="M315.626 331.159C319.505 327.779 323.36 324.401 327.191 321.024C323.36 324.401 319.505 327.779 315.626 331.159Z" fill="#D62353"/>
<path fill-rule="evenodd" clip-rule="evenodd" d="M338.341 300.76C350.297 306.834 362.252 312.862 374.191 318.937C385.59 311.214 397.294 299.078 388.116 290.119C369.588 272.072 381.017 249.462 370.563 230.984C359.964 251.156 326.781 263.175 337.599 291.123C337.876 294.309 338.136 297.525 338.34 300.745" fill="#D1173A"/>
</mask>
<g mask="url(#mask0)">
<path fill-rule="evenodd" clip-rule="evenodd" d="M26.3329 208.42C28.6234 221.533 36.7189 231.067 51.0737 236.803C57.8756 232.211 59.4457 226.117 59.1745 219.404C58.5851 215.182 57.5925 211.013 56.2059 206.937C48.3366 185.107 57.864 165.858 70.8791 147.149C99.9261 117.881 127.093 86.1223 180.505 114.923C191.627 120.92 210.484 118.38 217.699 107.948C241.803 72.8643 282.374 79.2725 319.123 75.4819C318.139 72.3985 316.903 69.3791 315.422 66.4444C311.068 59.1578 306.052 51.5341 296.023 49.6464C254.828 41.5327 231.061 3.78189 181.769 7.66251C144.394 10.6383 114.216 21.5333 90.6419 45.8885C82.1299 56.3209 68.0271 60.9536 56.807 68.5819L56.9365 68.5757C53.3804 72.3075 50.1869 76.2984 45.0428 78.8005L44.8393 78.8102C41.2422 87.9492 45.9774 99.6402 38.415 106.511C2.65589 138.924 15.6417 173.625 26.4076 208.432" fill="#F38390"/>
<path fill-rule="evenodd" clip-rule="evenodd" d="M318.99 75.6563C311.788 73.4559 303.792 72.2274 297.452 68.8681C265.541 52.0046 243.953 64.1333 222.893 85.6253C195.66 113.383 181.569 113.945 152.832 87.6346C141.58 77.3408 143.32 78.2383 131.459 89.0628C109.292 109.29 65.9065 111.856 60.028 146.916C88.5754 159.85 109.156 135.195 134.865 134.756C148.254 131.96 161.477 127.779 175.526 130.298C181.341 132.025 186.612 134.772 190.984 138.355L198.938 146.324C204.187 151.987 209.22 157.813 217.26 161.061C228.451 162.98 238.545 167.095 248.975 170.797L256.415 171.577C261.537 171.073 266.537 169.846 271.197 167.95C306.143 150.439 343.994 147.493 383.055 150.631C386.248 146.427 388.396 141.751 389.37 136.885C388.132 117.753 384.2 100.679 353.407 103.642C328.393 105.703 333.42 82.5524 319.064 75.6528" fill="#F27181"/>
<path fill-rule="evenodd" clip-rule="evenodd" d="M599.586 347.689C676.621 294.639 694.384 224.721 687.212 147.705C677.341 141.642 676.293 130.856 669.207 123.478C655.987 109.813 637.142 103.808 617.294 110.163C592.226 118.165 597.1 135.055 604.276 151.083C609.62 159.405 617.03 165.154 629.392 164.489C637.104 164.399 636.839 156.45 643.021 154.757C641.328 158.772 636.741 160.466 633.405 163.284C601.65 166.424 578.567 183.169 554.861 198.699C528.237 207.205 511.6 226.01 492.052 241.649C479.892 251.45 483.105 262.579 493.904 271.425C504.993 280.55 517.602 290.125 533.364 276.741C548.585 263.721 566.937 254.317 584.222 243.719C596.044 236.563 606.861 219.218 622.224 227.171C637.587 235.124 634.86 252.56 628.991 267.072C626.863 270.847 625.073 274.744 623.244 278.597C620.33 284.053 617.68 289.62 614.897 295.117C611.251 302.233 606.953 309.118 602.041 315.71C596.862 322.488 592.602 329.515 592.653 337.674C593.447 341.584 595.904 345.097 599.582 347.581" fill="#F26B7E"/>
<path fill-rule="evenodd" clip-rule="evenodd" d="M614.969 150.693C617.87 139.979 598.645 128.171 614.251 119.673C628.097 112.103 645.146 118.205 656.742 126.008C666.945 132.773 672.608 144.092 686.89 147.276C690.889 108.767 658.588 88.7354 626.92 70.6358C605.187 58.1647 580.863 46.6751 552.23 45.8896C502.964 29.1626 472.154 69.8193 429.961 74.9815C425.515 76.7814 421.848 79.7007 419.499 83.3111C417.279 90.7278 419.053 98.3993 417.576 105.857C416.249 109.274 414.632 112.613 412.738 115.851C407.846 122.215 400.417 127.242 397.439 134.68C397.292 138.795 398.643 142.822 401.315 146.237L406.881 150.571C413.428 154.145 421.423 155.506 429.264 154.381C451.395 148.732 447.095 127.615 461.62 117.59C493.409 101.136 528.717 93.3883 564.611 87.2839C537.956 115.236 492.536 95.5825 462.94 116.347C460.741 117.773 459.095 119.704 458.215 121.889C457.335 124.074 457.263 126.412 458.008 128.599C461.717 131.955 466.353 134.519 471.537 136.08C499.854 140.038 530.286 136.277 555.999 150.061C575.408 155.454 594.968 158.617 615.007 150.722" fill="#F37784"/>
<path fill-rule="evenodd" clip-rule="evenodd" d="M258.618 414.929C278.456 446.878 313.679 465.737 346.374 486.729C356.404 492.615 367.328 491.665 378.475 488.906C390.967 465.256 358.785 460.639 352.585 444.903C338.024 421.448 308.063 405.675 305.181 376.562C306.374 367.164 305.647 357.704 303.031 348.582C298.197 336.362 290.978 325.7 275.917 320.192C215.5 342.049 212.445 358.718 258.581 414.93" fill="#CD2451"/>
<path fill-rule="evenodd" clip-rule="evenodd" d="M258.665 414.604C257.436 408.517 257.904 401.719 254.566 396.67C230.031 359.305 232.516 351.521 280.175 322.904L285.724 317.524C293.195 299.608 283.263 285.977 271.091 272.867C255.04 259.665 241.903 263.993 227.476 276.786C214.499 288.281 210.204 305.401 191.85 312.773L181.978 305.668C168.929 296.103 156.658 285.61 137.469 285.14C132.102 285.845 127.099 287.933 123.175 291.105C118.818 309.012 142.195 310.788 149.034 322.215C188.504 350.65 216.594 388.337 258.702 414.602" fill="#DF4967"/>
<path fill-rule="evenodd" clip-rule="evenodd" d="M380.942 485.189C369.401 485.738 357.772 486.399 346.196 487.011C359.196 504.214 382.765 502.326 402.371 507.365C410.22 509.447 419.723 507.982 423.341 502.131C447.934 461.832 505.631 448.297 531.236 406.891C545.549 383.661 576.556 367.25 600.027 347.79C598.659 344.784 597.85 341.614 597.627 338.387C575.95 332.525 559.582 341.132 544.221 352.624C513.898 371.75 499.917 402.732 469.959 422.163C441.063 437.153 418.22 458.395 391.295 475.395C387.715 478.527 384.25 481.747 380.939 485.097" fill="#CF3C61"/>
<path fill-rule="evenodd" clip-rule="evenodd" d="M423.294 81.18C443.753 83.2715 463.601 87.6737 480.644 70.8005C498.857 52.6619 525.314 47.8225 552.192 45.6124C500.688 19.6505 453.814 28.0013 410.33 61.5354C405.15 68.5347 393.779 67.191 387.97 73.3166L387.828 73.4612C393.073 95.0496 407.854 89.1105 423.334 81.2394" fill="#F37C8A"/>
<path fill-rule="evenodd" clip-rule="evenodd" d="M26.5167 208.318C26.5923 201.916 28.6309 194.912 26.411 189.158C15.1045 160.318 24.9252 135.395 50.7632 115.709C73.4106 98.4202 59.3349 89.2918 44.99 78.5612C-8.06077 121.598 -10.5814 139.652 26.5192 208.379" fill="#F69BA5"/>
<path fill-rule="evenodd" clip-rule="evenodd" d="M149.047 321.87C147.238 308.318 130.792 302.659 125.368 291.032C126.062 271.011 103.174 256.541 108.132 235.487C101.97 210.658 91.4027 188.836 56.7061 183.83C39.4916 193.136 43.3259 204.454 51.3142 216.174C62.9337 224.077 54.4545 237.872 63.5084 246.574C86.4088 276.05 106.79 307.475 149.047 321.87Z" fill="#E6576E"/>
<path fill-rule="evenodd" clip-rule="evenodd" d="M423.456 81.198C410.635 81.4393 396.918 84.2738 387.912 73.3938C371.35 79.6979 361.084 90.8496 353.157 103.918C374.664 110.331 379.146 124.899 378.789 141.771C386.698 147.541 394.251 146.321 401.564 140.549C401.681 137.471 401.72 134.319 401.799 131.212C407.686 125.016 418.692 126.213 424.751 120.163C424.621 116.943 424.603 113.748 424.547 110.524C431.02 103.686 430.72 97.1699 423.849 90.936C423.718 87.7002 423.494 84.4535 423.363 81.2024" fill="#F38491"/>
<path fill-rule="evenodd" clip-rule="evenodd" d="M56.7372 68.2986C74.7823 67.7474 86.7175 60.902 90.5657 45.6157C75.1485 48.8355 63.0037 55.5373 56.7372 68.2986Z" fill="#F69BA5"/>
<path fill-rule="evenodd" clip-rule="evenodd" d="M63.5692 246.477C64.0885 234.961 66.1707 223.032 51.3561 216.06C51.3393 222.999 51.3769 229.904 51.3787 236.842C53.439 241.836 56.8971 245.548 63.5692 246.477Z" fill="#F1687B"/>
<path fill-rule="evenodd" clip-rule="evenodd" d="M388.015 73.1706C397.897 72.4402 406.529 70.1128 410.4 61.3711C400.908 62.6044 392.101 64.7254 388.015 73.1706Z" fill="#F38491"/>
<path fill-rule="evenodd" clip-rule="evenodd" d="M45.0969 78.4849C49.0608 75.0505 53.0257 71.6416 56.9917 68.2583C54.0261 68.7948 51.3036 70.0583 49.1811 71.8831C47.0585 73.708 45.635 76.0091 45.0969 78.4849Z" fill="#F69BA5"/>
<path fill-rule="evenodd" clip-rule="evenodd" d="M51.2177 216.014C51.5982 205.244 48.2037 193.716 61.9825 186.056C68.3547 190.555 76.3421 193.211 84.7794 193.639C93.2167 194.066 101.662 192.242 108.884 188.433C117.657 182.578 123.154 174.575 129.164 166.855C137.343 153.21 152.206 140.721 142.247 123.638C109.418 117.198 88.8519 142.691 60.1221 146.884C38.7576 168.668 27.2256 191.105 51.1819 216.047" fill="#F1687B"/>
<path fill-rule="evenodd" clip-rule="evenodd" d="M136.619 290.552C152.811 299.578 169.034 308.602 185.288 317.625L185.292 317.733C186.463 325.615 187.782 333.491 201.561 340.574C210.733 317.597 223.246 296.55 241.113 277.781C249.648 268.838 257.319 272.91 265.99 274.678L274.092 274.293C279.366 273.098 284.433 271.307 289.148 268.97C298.418 263.554 305.865 257.043 307.339 247.192C290.526 184.73 290.581 185.173 364.189 173.533C380.762 170.887 406.669 174.937 403.049 148.653C394.694 145.979 386.744 145.989 379.449 151.219C362.11 149.126 347.617 124.819 337.939 132.987C315.576 151.97 273.859 136.404 261.682 167.14C257.968 170.618 254.073 171.002 249.926 167.914C237.439 163.901 224.51 167.741 218.721 175.371C192.215 209.721 150.269 231.601 119.236 262.159C115.176 275.879 123.702 284.149 136.543 290.509" fill="#E6576E"/>
<path fill-rule="evenodd" clip-rule="evenodd" d="M124.483 261.366C163.131 243.402 201.753 226.206 219.116 188.203C223.155 179.48 239.458 174.378 250.099 167.658C242.783 152.141 230.324 151.015 214.399 159.505L208.427 160.295C204.667 158.94 200.765 157.76 196.754 156.616C192 156.424 187.221 156.765 182.546 157.629C164.58 161.905 145.191 164.008 135.869 180.439C133.879 184.308 132.225 188.283 130.921 192.336C107.297 224.438 111.242 179.462 97.3684 184.617L62.0098 186.299C75.8845 204.558 97.3791 219.263 99.8001 242.946L102.898 248.076C107.005 252.656 112.126 256.539 117.998 259.526L124.485 261.396" fill="#F06377"/>
<path fill-rule="evenodd" clip-rule="evenodd" d="M144.194 182.399C158.545 165.544 186.333 173.437 202.351 159.759C209.011 153.023 208.583 146.547 201.735 140.377C194.388 135.612 196.204 126.419 188.949 121.65C173.013 113.025 157.442 114.365 142.158 123.738C134.724 137.002 127.271 150.262 119.799 163.518C122.955 174.195 123.769 187.01 144.195 182.429" fill="#E6576E"/>
<path fill-rule="evenodd" clip-rule="evenodd" d="M188.869 121.628C189.635 129.572 192.039 136.7 201.653 140.379C201.124 132.332 198.81 125.137 188.869 121.628Z" fill="#F06377"/>
<path fill-rule="evenodd" clip-rule="evenodd" d="M201.655 140.457C201.916 146.919 202.067 153.417 202.291 159.866L202.578 160.083C204.233 161.224 206.364 161.791 208.54 161.671C210.717 161.55 212.776 160.75 214.304 159.433C213.774 151.368 211.405 144.191 201.692 140.455" fill="#F06377"/>
<path fill-rule="evenodd" clip-rule="evenodd" d="M379.226 151.231L402.484 150.602L406.339 145.623L403.868 142.676L401.712 140.664L378.977 141.882C378.935 144.948 379.063 148.113 379.227 151.262" fill="#F37784"/>
<path fill-rule="evenodd" clip-rule="evenodd" d="M249.948 167.727C254.321 174.158 258.204 173.973 261.699 166.954C257.797 167.139 253.882 167.432 249.948 167.727Z" fill="#F06377"/>
<path fill-rule="evenodd" clip-rule="evenodd" d="M632.468 277.422C678.566 251.068 636.138 230.659 628.498 203.928C593.347 224.19 555.963 239.169 530.29 262.848C513.32 278.561 509.749 269.52 501.905 262.955C488.074 251.333 500.374 248.476 512.124 243.91C533.818 235.495 540.27 214.48 558.384 202.781L555.518 196.961C543.411 178.472 553.271 134.468 499.448 164.091C482.66 178.813 460.375 184.509 439.198 192.884C412.311 203.466 413.045 227.608 436.696 232.301C464.512 237.824 465.803 247.756 469.367 266.253C475.593 297.886 508.278 311.989 536.992 294.797C554.672 284.269 562.12 278.711 581.998 291.858C599.13 303.108 618.229 289.628 632.429 277.378" fill="#EE6175"/>
<path fill-rule="evenodd" clip-rule="evenodd" d="M632.525 277.405C615.403 276.683 599.609 293.72 582.445 282.784C563.301 270.574 552.555 270.748 531.843 286.728C508.776 304.51 478.27 285.036 479.039 251.754C479.546 232.157 488.487 215.308 451.084 229.302C442.919 232.348 429.205 223.276 430.96 210.748C432.002 203.017 439.717 198.041 447.197 199.636C483.365 207.379 494.576 184.292 509.699 165.813L507.231 159.785C496.361 144.939 472.171 143.217 461.333 128.262C461.21 125.195 461.028 122.085 460.79 118.932L460.618 118.802C433.86 117.755 441.308 142.427 426.232 150.15C418.879 186.127 381.231 220.228 413.576 258.617C445.601 262.486 450.559 289.766 470.459 304.167C474.367 307.131 478.717 309.669 483.408 311.724C524.773 322.814 567.887 315.708 610.193 317.536C619.272 312.802 620.993 305.377 621.191 297.425C625.461 294.364 628.014 290.11 632.189 286.977C632.338 283.774 632.449 280.573 632.562 277.403" fill="#EA566D"/>
<path fill-rule="evenodd" clip-rule="evenodd" d="M610.265 317.656C583.357 297.446 549.473 308.682 518.914 306.805C506.023 306.036 493.032 302.802 479.769 304.307L479.939 304.391C480.715 287.378 457.868 280.529 459.2 258.915C460.495 236.843 433.196 264.296 419.101 258.044C417.653 259.513 416.66 261.248 416.21 263.094C415.761 264.94 415.87 266.839 416.526 268.619C423.327 275.48 414.062 284.224 419.592 291.298C447.321 308.874 438.873 343.797 466.891 361.191C495.499 366.154 524.108 367.925 552.661 359.598C563.114 345.885 584.386 348.143 597.343 338.148C601.643 331.282 605.907 324.463 610.225 317.581" fill="#DA3C5E"/>
<path fill-rule="evenodd" clip-rule="evenodd" d="M615.07 151.08C599.227 148.538 583.39 145.985 567.559 143.422C533.958 160.373 563.971 183.065 558.031 202.554L558.221 202.668C589.37 193.832 614.411 176.966 639.08 159.58C629.402 159.948 620.513 158.743 615.147 151.138" fill="#EE6175"/>
<path fill-rule="evenodd" clip-rule="evenodd" d="M639.013 159.633C643.961 157.215 649.767 150.345 647.029 149.599C633.458 145.633 641.932 156.128 638.937 159.575" fill="#F37784"/>
<path fill-rule="evenodd" clip-rule="evenodd" d="M632.118 287.304C628.441 290.812 624.8 294.288 621.12 297.751C624.8 294.288 628.441 290.812 632.118 287.304Z" fill="#EE6175"/>
<path fill-rule="evenodd" clip-rule="evenodd" d="M419.362 267.24C419.23 263.974 419.099 260.724 419.097 257.468C412.9 233.909 407.098 209.595 428.792 189.086C445.183 173.607 433.368 162.419 426.388 149.773L404.025 142.696L402.642 150.672C386.208 167.858 362.91 161.947 342.334 163.325C285.023 167.097 267.023 191.392 291.279 235.687C294.419 241.39 299.418 246.297 299.891 252.941L307.236 256.263L315.594 254.851C321.167 252.46 325.612 248.558 328.172 243.812C330.732 239.065 331.248 233.768 329.632 228.824C323.081 211.196 331.913 196.722 352.438 196.851C375.095 196.986 360.359 218.101 367.548 228.126C389.176 237.189 375.549 278.433 419.418 267.237" fill="#DB395D"/>
<path fill-rule="evenodd" clip-rule="evenodd" d="M460.582 118.576C493.375 117.019 526.132 115.464 558.931 114.015C573.498 113.323 584.615 110.239 589.204 96.4093C593.364 83.8712 594.85 75.747 575.097 72.7651C542.654 67.905 480.35 91.7466 460.41 118.446L460.582 118.576Z" fill="#F37C8A"/>
<path fill-rule="evenodd" clip-rule="evenodd" d="M558.09 202.485C561.721 190.5 585.614 180.378 561.771 165.57C554.471 161.079 564.978 150.887 567.638 143.326C539.637 123.324 506.152 125.424 472.342 128.646C470.592 135.794 475.509 144.653 481.668 142.471C516.393 130.221 497.953 159.697 509.137 165.355L509.561 165.765C537.553 154.342 543.132 170.834 535.845 185.004C521.202 213.486 547.564 199.806 558.09 202.485Z" fill="#EA566D"/>
<path fill-rule="evenodd" clip-rule="evenodd" d="M509.145 165.157C527.69 131.478 483.828 141.272 472.359 128.521C468.648 128.406 464.935 128.244 461.222 128.083C453.599 133.451 456.075 138.308 461.632 143.295C474.554 154.857 492.395 159.29 509.148 165.218" fill="#D93C5B"/>
<path fill-rule="evenodd" clip-rule="evenodd" d="M423.86 90.9782C424.124 97.5286 424.389 104.064 424.652 110.583C436.403 103.492 436.139 96.9574 423.86 90.9782Z" fill="#F37C8A"/>
<path fill-rule="evenodd" clip-rule="evenodd" d="M424.829 120.246C415.191 121.041 406.515 123.171 401.896 131.27C411.574 130.55 420.309 128.494 424.829 120.246Z" fill="#F37C8A"/>
<path fill-rule="evenodd" clip-rule="evenodd" d="M458.321 354.342C464.186 324.614 459.57 298.951 420.792 287.086C413.932 293.13 411.111 300.873 407.72 308.304C392.97 340.314 383.336 380.535 327.24 341.229C321.973 337.576 313.377 345.147 305.819 345.845C300.915 346.553 296.443 348.704 293.229 351.9C293.629 361.81 293.863 371.728 294.225 381.609C344.459 385.505 337.161 420.189 344.023 447.267C342.447 469.321 368.451 472.556 380.973 485.025C385.119 484.827 389.29 484.767 393.422 484.678C405.221 466.841 401.269 445.695 412.151 428.102C412.083 429.642 415.001 422.448 413.272 428.786C411.544 435.124 414.941 426.924 413.84 433.647C428.654 444.546 442.253 442.362 455.14 430.805C483.295 405.565 451.54 379.779 458.321 354.342Z" fill="#D72453"/>
<path fill-rule="evenodd" clip-rule="evenodd" d="M344.173 447.186C347.656 437.937 353.425 428.78 354.27 419.412C358.285 376.944 347.034 370.179 294.382 381.537C291.777 385.456 286.25 392.328 287.07 392.888C309.673 408.44 318.586 433.973 344.173 447.186Z" fill="#DE3D5E"/>
<path fill-rule="evenodd" clip-rule="evenodd" d="M293.244 351.648C297.046 351.667 300.824 351.549 304.598 351.338C311.838 346.953 311.982 338.141 320.439 334.496C325.984 330.907 330.936 326.722 335.159 322.057C339.713 316.831 342.772 311.292 341.69 304.721C339.401 300.833 335.889 297.548 331.516 295.202C294.949 279.547 286.788 300.603 279.824 323.276L279.982 323.069C279.782 334.188 287.391 342.6 293.244 351.633" fill="#DE375D"/>
<path fill-rule="evenodd" clip-rule="evenodd" d="M279.779 323.197L285.403 322.422C293.734 299.179 315.464 299.666 337.813 301.215L341.693 295.853C341.524 291.651 340.085 287.578 337.507 284.006C329.32 273.641 327.26 259.834 312.658 253.123L300.157 253.012C292.674 256.871 285.223 260.749 277.804 264.646C274.231 268.218 270.392 271.603 266.31 274.78L266.11 274.882C267.732 291.628 283.104 305.447 279.798 323.196" fill="#D62353"/>
<path fill-rule="evenodd" clip-rule="evenodd" d="M136.853 290.359C132.755 280.738 128.657 271.107 124.558 261.465L124.351 261.368C117.598 254.142 109.354 247.976 99.9867 243.146L99.8515 243.014C90.5317 248.745 88.657 255.597 96.0219 262.992C105.476 272.533 115.474 281.755 125.272 291.079C129.123 290.896 132.932 290.622 136.779 290.363" fill="#D93959"/>
<path fill-rule="evenodd" clip-rule="evenodd" d="M458.146 354.62C432.773 358.713 430.362 371.51 444.637 384.925C458.294 397.755 459.17 409.32 449.394 423.326C454.525 431.051 466.648 426.543 472.955 432.2C482.377 431 495.266 429.849 497.456 422.591C505.609 395.028 534.329 380.658 552.873 359.863C522.665 346.101 489.962 354.519 458.146 354.62Z" fill="#D41C4D"/>
<path fill-rule="evenodd" clip-rule="evenodd" d="M473.134 432.236C468.191 424.12 459.132 423.277 449.573 423.363C438.304 436.18 426.546 437.339 414.208 425.045C380.469 439.024 378.763 460.091 393.438 484.786C426.915 474.442 443.788 446.682 473.131 432.175" fill="#DF4161"/>
<path fill-rule="evenodd" clip-rule="evenodd" d="M97.3759 184.506C103.151 208.124 103.151 208.124 123.403 227.996C139.312 219.264 144.226 206.446 144.653 191.752C133.823 185.276 120.101 187.097 108.257 183.527L97.3759 184.506Z" fill="#E6576E"/>
<path fill-rule="evenodd" clip-rule="evenodd" d="M108.207 183.487C112.425 208.514 132.11 190.032 144.6 191.711C144.624 188.637 144.555 185.568 144.224 182.403L119.821 163.484C111.041 168.28 108.739 175.55 108.133 183.491" fill="#DB3A60"/>
<path fill-rule="evenodd" clip-rule="evenodd" d="M266.216 274.685C270.064 271.276 273.858 267.901 277.707 264.523C273.858 267.901 270.064 271.276 266.216 274.685Z" fill="#DF4967"/>
<path fill-rule="evenodd" clip-rule="evenodd" d="M185.587 317.788L190.194 315.279C189.211 312.038 187.336 312.896 185.545 317.682L185.55 317.789" fill="#DF4967"/>
<path fill-rule="evenodd" clip-rule="evenodd" d="M100.044 243.121C102.195 247.488 105.493 251.384 109.702 254.532C113.911 257.68 118.928 260.002 124.396 261.332C123.244 248.883 115.173 242.739 100.044 243.121Z" fill="#E6576E"/>
<path fill-rule="evenodd" clip-rule="evenodd" d="M214.308 159.454L202.609 160.101C206.851 165.584 210.685 165.126 214.308 159.454Z" fill="#F27181"/>
<path fill-rule="evenodd" clip-rule="evenodd" d="M338.38 310.375C334.628 313.919 330.879 317.541 327.072 321.088C323.265 324.635 319.561 327.977 315.5 331.229C306.118 335.887 304.588 343.461 304.467 351.474C340.569 344.377 355.37 374.704 388.264 383.683C391.734 348.812 429.916 323.864 420.672 286.939C413.156 280.872 458.485 271.676 419.552 267.473C408.289 268.27 402.764 265.105 401.009 254.722C398.835 241.3 390.614 230.624 371.303 230.544L365.947 235.687C352.758 262.274 379.666 287.446 367.523 313.737C353.979 332.457 348.363 310.038 338.417 310.373" fill="#CF1A47"/>
<path fill-rule="evenodd" clip-rule="evenodd" d="M479.986 304.318C474.924 306.649 469.23 313.545 471.855 314.234C485.286 317.976 476.838 307.665 479.815 304.218L479.986 304.318Z" fill="#EA566D"/>
<path fill-rule="evenodd" clip-rule="evenodd" d="M312.464 253.107C321.187 265.561 307.278 288.716 337.579 291.041C344.634 269.55 364.685 252.852 370.534 230.911L371.255 230.369C374.494 220.99 379.185 211.711 380.639 202.248C382.094 192.785 382.96 181.151 370.843 176.07C358.103 170.757 348.996 178.647 340.834 186.492L330.945 191.575C296.769 197.583 289.151 208.815 317.84 229.098C321.565 231.749 321.612 237.974 323.376 242.579C319.811 246.208 316.855 250.192 312.526 253.258" fill="#CF1A47"/>
<path fill-rule="evenodd" clip-rule="evenodd" d="M312.586 253.072C316.15 249.507 319.825 245.937 323.446 242.4C319.769 245.94 316.187 249.506 312.586 253.072Z" fill="#D62353"/>
<path fill-rule="evenodd" clip-rule="evenodd" d="M414.139 424.998C429.946 423.385 438.099 417.297 434.832 402.501C419.983 406.711 419.595 417.317 414.139 424.998Z" fill="#D41C4D"/>
<path fill-rule="evenodd" clip-rule="evenodd" d="M338.425 310.367C339.635 315.059 339.766 320.141 342.161 324.331C346.15 331.243 349.228 342.24 358.869 341.689C373.783 340.78 373.177 328.542 374.275 318.975C368.243 305.121 359.374 294.937 338.447 300.805L337.784 301.375L338.425 310.367Z" fill="#D62353"/>
<path fill-rule="evenodd" clip-rule="evenodd" d="M315.626 331.159C319.505 327.779 323.36 324.401 327.191 321.024C323.36 324.401 319.505 327.779 315.626 331.159Z" fill="#D62353"/>
<path fill-rule="evenodd" clip-rule="evenodd" d="M338.341 300.76C350.297 306.834 362.252 312.862 374.191 318.937C385.59 311.214 397.294 299.078 388.116 290.119C369.588 272.072 381.017 249.462 370.563 230.984C359.964 251.156 326.781 263.175 337.599 291.123C337.876 294.309 338.136 297.525 338.34 300.745" fill="#D1173A"/>
<rect opacity="0.85" x="-64" width="760" height="553" fill="white"/>
</g>
</g>
<defs>
<clipPath id="clip0">
<rect width="685" height="511" fill="white" transform="matrix(-1 0 0 1 685 0)"/>
</clipPath>
</defs>
</svg>
