<svg width="75" height="53" viewBox="0 0 75 53" fill="none" xmlns="http://www.w3.org/2000/svg">
<path d="M73.7251 25.5102C73.899 27.113 71.5891 29.5587 69.5199 29.5555C68.0633 29.5555 66.2177 28.8776 65.967 26.1609C65.5116 21.2309 68.7245 17.7561 68.6717 17.2769C68.619 16.7977 67.7134 16.328 67.21 16.3825C67.21 16.3825 67.1734 16.4194 67.1076 16.4899C66.8136 15.4978 65.3888 15.025 64.5355 15.0875C63.28 15.1821 61.66 17.0781 60.9204 18.5382C60.382 18.6136 59.8535 18.7441 59.3417 18.9277C59.7234 16.0652 58.4789 15.368 57.225 15.5043C56.4343 15.5821 55.6744 15.8546 55.0137 16.2976C55.0273 16.2144 55.0304 16.1299 55.0237 16.046C54.9547 15.4049 52.7519 14.5794 52.8396 15.4049C52.9994 16.8473 49.3249 21.896 47.812 26.9174C47.6427 27.0296 47.5852 27.0152 47.3855 26.9607C46.6298 26.754 45.9332 24.4813 45.1792 23.7071C46.3998 23.0836 50.4656 19.2386 50.5711 17.6327C50.6094 17.0509 48.5533 15.7094 48.2865 16.5316C47.8072 18.011 45.1361 21.8784 43.4937 22.6221C44.2238 20.0849 45.5019 17.8298 45.4843 17.6695C45.4508 17.349 44.1839 16.8585 43.2877 17.0012C42.9266 17.0589 41.7491 19.7788 41.051 21.7726C39.2457 24.6928 33.4832 31.3378 32.9848 31.3891C32.6205 31.4292 32.3825 30.5284 32.3825 29.6966C32.3825 25.2506 36.9165 20.3557 38.677 20.165C39.1563 20.1122 40.0781 20.9167 39.9902 20.1057C39.8656 18.9502 38.4565 18.2577 37.5826 18.2946C34.0823 18.442 30.975 22.4281 29.9797 24.7457C28.7016 26.9623 24.2875 32.3059 22.7905 34.2612C22.7706 34.2874 22.7426 34.3063 22.7108 34.315C22.6791 34.3237 22.6454 34.3217 22.615 34.3092C22.5845 34.2969 22.5589 34.2748 22.5421 34.2465C22.5254 34.2181 22.5184 34.185 22.5222 34.1522C23.3609 27.2781 29.4908 20.6026 29.4956 19.838C29.4956 19.1601 28.1856 18.6713 26.9858 18.8011C25.5224 18.9614 15.579 33.2852 12.3663 36.5307C12.3339 36.563 12.2929 36.5851 12.2482 36.5943C12.2035 36.6034 12.157 36.5991 12.1147 36.5821C12.0724 36.565 12.0359 36.5359 12.01 36.4983C11.984 36.4607 11.9696 36.4162 11.9685 36.3704C11.7016 27.6675 29.7848 10.9572 29.9014 9.57727C29.9781 8.65891 27.8389 7.97448 26.7957 8.00655C18.8812 8.25657 0.275696 23.4314 0.275696 27.0905C0.275696 28.8536 3.37183 31.1599 3.35426 30.0251C3.28716 26.0183 20.9022 9.65261 26.4922 9.91705C24.5128 11.1624 6.98719 26.677 6.23948 37.8145C6.01904 41.1002 8.82443 41.9144 10.7383 41.9144C12.0419 41.9144 13.4957 41.0841 19.3525 31.817C19.1816 32.5367 18.9771 34.3734 19.0186 34.7693C19.1896 36.348 21.4438 37.26 22.8385 37.0837C23.5414 36.9971 26.5129 32.4053 28.8406 29.3905C28.7927 31.7497 30.2689 33.7179 33.496 33.3749C35.0089 33.2146 38.7888 28.0025 39.8864 25.9333C39.61 27.0921 39.0556 28.5218 39.1467 29.3632C39.1866 29.7399 41.8626 31.4115 41.6853 29.7543C41.583 28.8087 42.3243 26.7091 42.7924 24.8739C44.2862 25.3435 44.5769 29.9098 47.1235 29.6341L47.2034 29.6053C47.0085 30.7175 46.8838 31.6455 46.9989 32.6857C47.058 33.2307 47.3982 33.3909 47.55 33.8076C30.9143 35.8463 9.23341 45.9886 4.66587 47.056C2.97243 47.4487 2.87657 46.5992 2.58901 46.9855C1.80139 48.0241 4.44859 52.3801 6.99194 52.0181C14.3808 50.9667 29.2991 39.0102 50.0183 35.4793L49.8586 34.5625C49.5901 23.6638 56.4327 16.6983 57.1388 17.2817C57.4584 17.5526 57.4025 18.5206 57.1226 19.9486C54.4262 22.114 51.9977 24.789 52.3109 27.7028C52.362 28.1836 52.6704 29.7975 54.2277 29.5732C56.4933 29.2526 58.4502 24.1463 59.1312 20.4471C59.4774 20.1704 59.8702 19.9572 60.2906 19.8172C59.9041 20.9392 59.4921 21.9265 59.4921 23.4603C59.4921 23.9812 59.5161 26.8421 61.8454 26.8421C62.6439 26.8421 63.3949 26.2812 64.1041 25.4638C64.4013 28.0586 65.5419 29.4065 67.0293 30.3665C63.4999 30.6837 59.995 31.2352 56.5382 32.0174C55.3783 32.144 55.3668 34.2613 55.8253 34.3734C66.2229 31.7978 71.3749 32.0414 72.5108 31.8699C73.0362 31.7914 72.7375 31.1679 72.2424 30.3922C74.4406 29.3696 74.7983 27.6675 74.9581 27.0104C75.2777 25.6112 73.6608 24.9108 73.7251 25.5102ZM53.9995 28.3182C53.8684 28.3327 53.7729 27.9977 53.7405 27.6996C53.613 26.5199 54.9213 24.1367 56.6165 21.9842C55.7694 25.0021 54.597 28.2525 53.9995 28.3182ZM61.9169 25.0855C61.6855 25.1207 61.5722 24.7297 61.556 24.4781C61.3325 20.8927 64.2415 17.0172 65.1141 16.748C65.7116 16.5637 65.9623 16.9083 65.9926 17.1839C66.0103 17.3602 66.344 17.2208 66.5451 17.3442C66.1989 17.8138 65.5403 18.8812 65.427 19.1072C64.4112 20.8606 62.5849 24.9861 61.9169 25.0855Z" fill="#376EB3"/>
<path d="M49.5223 0.0778953C50.0715 0.334138 51.1082 2.74619 50.9684 3.69751C50.1364 9.34252 35.075 8.19788 32.5406 14.0163C31.7918 15.7394 30.6919 13.6465 31.0281 12.8286C33.3694 7.15141 47.7402 5.57099 48.657 0.60418C48.7635 0.0272503 49.1213 -0.107765 49.5223 0.0778953Z" fill="#376EB3"/>
<path d="M56.1288 8.43934C56.1667 8.41247 56.2092 8.39334 56.2538 8.3829C56.2973 8.37099 56.3424 8.36504 56.3869 8.3652C56.4719 8.36409 56.5559 8.38227 56.6333 8.41842C56.7065 8.45537 56.7695 8.5108 56.8167 8.57963L57.23 8.20078C57.1854 8.14402 57.1327 8.09459 57.0733 8.05406C57.0108 8.01069 56.9437 7.97496 56.873 7.94767C56.7998 7.9181 56.7245 7.89597 56.6471 7.88158C56.5713 7.86625 56.494 7.85866 56.4171 7.85897C56.2789 7.85818 56.1416 7.87884 56.0094 7.92026C55.8891 7.95894 55.7764 8.01897 55.676 8.09759C55.5818 8.17311 55.5049 8.26886 55.4501 8.37811C55.3943 8.49194 55.3656 8.61799 55.3671 8.74563C55.3651 8.84065 55.382 8.93508 55.4173 9.02293C55.4481 9.09724 55.4926 9.16458 55.549 9.22118C55.6063 9.27762 55.6719 9.32442 55.7431 9.35983C55.8215 9.39962 55.9019 9.43409 55.9843 9.46302C56.0888 9.49601 56.1872 9.54491 56.2773 9.6081C56.3121 9.63207 56.3408 9.6648 56.3598 9.70317C56.3787 9.74148 56.3885 9.78422 56.3869 9.82732C56.389 9.8796 56.3767 9.9313 56.3526 9.97725C56.3301 10.018 56.2983 10.0528 56.2604 10.0788C56.2194 10.1063 56.1733 10.1255 56.1257 10.1352C56.074 10.147 56.0217 10.1529 55.969 10.1529C55.8624 10.152 55.7579 10.1261 55.6632 10.0772C55.572 10.0343 55.4937 9.96692 55.4363 9.88213L54.985 10.2593C55.0383 10.3288 55.1018 10.3896 55.173 10.4399C55.2468 10.4935 55.3267 10.5373 55.4112 10.5705C55.4978 10.6046 55.5874 10.6305 55.6791 10.6479C55.7713 10.6645 55.8645 10.6732 55.9577 10.6737C56.0852 10.6736 56.2123 10.6567 56.3352 10.6237C56.4586 10.5919 56.5754 10.5372 56.6799 10.4625C56.7829 10.3906 56.8684 10.2958 56.9309 10.1852C56.998 10.0595 57.0318 9.9176 57.0282 9.77415C57.0297 9.68209 57.0139 9.59065 56.9811 9.50491C56.9488 9.42471 56.9012 9.35182 56.8418 9.29053C56.7741 9.22677 56.6989 9.1726 56.6174 9.12933C56.5206 9.07726 56.4197 9.03252 56.3168 8.99553C56.2307 8.96754 56.1493 8.92623 56.0755 8.873C56.0479 8.85271 56.0258 8.82578 56.0105 8.79459C55.9956 8.76339 55.9884 8.72887 55.9889 8.69404C55.9874 8.64218 56.0007 8.59096 56.0284 8.54738C56.053 8.50374 56.0873 8.46675 56.1288 8.43934ZM57.4026 7.92348L57.3068 8.46353H58.0336L57.672 10.5963H58.28L58.6467 8.46353H59.3577L59.4488 7.92348H57.4026ZM61.2897 7.92348L61.0074 9.55008C60.9962 9.61853 60.9798 9.68593 60.9578 9.75154C60.9357 9.81721 60.903 9.87839 60.8604 9.93209C60.8149 9.98806 60.7585 10.0332 60.6945 10.0643C60.6146 10.1011 60.528 10.1187 60.4404 10.1159C60.3718 10.1175 60.3032 10.106 60.2381 10.0821C60.1864 10.0627 60.1398 10.0312 60.1019 9.99016C60.0681 9.95148 60.0425 9.9059 60.0271 9.85636C60.0107 9.80419 60.003 9.7498 60.0035 9.69516C60.0035 9.6726 60.0035 9.64841 60.0035 9.61937C60.0051 9.59287 60.0081 9.56646 60.0128 9.54038L60.2919 7.92833H59.6855L59.4002 9.60488C59.4002 9.64193 59.391 9.68066 59.3874 9.72092C59.3843 9.76124 59.3874 9.79829 59.3874 9.83375C59.3858 9.9538 59.4099 10.0728 59.458 10.182C59.5057 10.2845 59.5759 10.374 59.6634 10.4432C59.7602 10.5173 59.8699 10.572 59.9861 10.6044C60.1244 10.6446 60.2673 10.6642 60.4107 10.6624C60.5705 10.6654 60.7293 10.6397 60.8809 10.5866C61.011 10.54 61.1309 10.4683 61.2349 10.3754C61.3347 10.2852 61.4162 10.1757 61.4746 10.053C61.5381 9.91617 61.5826 9.77073 61.6062 9.62101L61.8915 7.93154L61.2897 7.92348ZM64.1098 8.18302C63.9925 8.09185 63.8588 8.02503 63.717 7.98635C63.5746 7.94482 63.4276 7.92369 63.2795 7.92348H62.3176L61.8602 10.5963H62.921C63.1346 10.5983 63.3466 10.5612 63.5474 10.4867C63.7333 10.4189 63.9039 10.313 64.0489 10.1756C64.1912 10.0401 64.3044 9.87533 64.3813 9.69194C64.4632 9.48763 64.5037 9.26814 64.5001 9.04707C64.5052 8.86884 64.4668 8.69214 64.389 8.53283C64.3203 8.39524 64.223 8.27514 64.1037 8.18138L64.1098 8.18302ZM63.8122 9.47266C63.7728 9.58617 63.7103 9.68983 63.6294 9.77705C63.5484 9.86421 63.4506 9.93298 63.342 9.97888C63.2145 10.0326 63.0777 10.0589 62.9394 10.0562H62.5476L62.8191 8.46032H63.1638C63.2703 8.45821 63.3763 8.47629 63.4767 8.51349C63.5602 8.54464 63.636 8.59354 63.6995 8.65699C63.7579 8.71691 63.8025 8.78963 63.8296 8.86979C63.8578 8.95263 63.8721 9.03985 63.8716 9.1277C63.8701 9.24326 63.8491 9.35767 63.8107 9.46623L63.8122 9.47266ZM64.5785 10.6011H65.191L65.6484 7.92996H65.0359L64.5785 10.6011ZM68.171 8.18302C68.0573 8.07636 67.9226 7.99562 67.7761 7.94603C67.6066 7.88738 67.4288 7.85903 67.2501 7.86224C67.0375 7.86013 66.8275 7.90356 66.6324 7.98956C66.4495 8.07024 66.2846 8.18813 66.1468 8.33616C66.0106 8.48604 65.904 8.66179 65.8333 8.85366C65.7565 9.05924 65.7181 9.2781 65.7207 9.49848C65.7191 9.66385 65.7483 9.82806 65.8067 9.9821C65.8625 10.1235 65.9476 10.2507 66.0561 10.3545C66.1714 10.4612 66.3066 10.5424 66.4541 10.5931C66.6257 10.6504 66.806 10.6781 66.9868 10.6753C67.1989 10.6781 67.4094 10.6347 67.604 10.5479C67.7858 10.4672 67.9502 10.3493 68.0865 10.2013C68.2227 10.0515 68.3293 9.8757 68.4 9.68388C68.4747 9.48104 68.5126 9.26566 68.5111 9.0487C68.5132 8.88328 68.484 8.71896 68.4251 8.56508C68.3718 8.41758 68.2873 8.28431 68.1777 8.17496L68.171 8.18302ZM67.8125 9.47266C67.7756 9.58986 67.7182 9.69911 67.6429 9.79507C67.5702 9.88988 67.4785 9.9674 67.3735 10.0224C67.2619 10.0801 67.1384 10.1094 67.0134 10.1078C66.9156 10.1099 66.8188 10.0918 66.7282 10.0546C66.6503 10.0222 66.5796 9.9733 66.5212 9.91117C66.4644 9.8503 66.4208 9.77779 66.3927 9.69837C66.363 9.61421 66.3481 9.5252 66.3491 9.43561C66.3491 9.30898 66.3691 9.18324 66.4085 9.06325C66.448 8.94646 66.5059 8.83743 66.5806 8.74083C66.6554 8.64724 66.7476 8.56999 66.8521 8.51349C66.951 8.46301 67.0585 8.43376 67.1686 8.4277C67.2788 8.42159 67.3894 8.43871 67.4929 8.47803C67.5707 8.51028 67.6414 8.55913 67.6998 8.62152C67.7551 8.68371 67.7981 8.75659 67.8263 8.8359C67.8565 8.91954 67.8714 9.00802 67.8703 9.09708C67.8688 9.22045 67.8488 9.34281 67.8109 9.4598L67.8125 9.47266ZM57.7535 7.20614C57.9389 7.13769 58.1094 7.03187 58.2549 6.89496C58.3973 6.75973 58.5105 6.59489 58.5868 6.41134C58.6698 6.20729 58.7102 5.98764 58.7061 5.76652C58.7108 5.58776 58.6723 5.41064 58.595 5.25068C58.5269 5.11431 58.4296 4.99534 58.3112 4.90247C58.1934 4.8114 58.0598 4.74413 57.9179 4.70419C57.7755 4.66397 57.6285 4.64337 57.481 4.64293H56.5186L56.0627 7.31412H57.1219C57.337 7.31212 57.5506 7.27122 57.7519 7.19323L57.7535 7.20614ZM57.0261 5.17651H57.3662C57.4728 5.17473 57.5788 5.1922 57.6797 5.22811C57.7627 5.25983 57.8385 5.30866 57.902 5.37159C57.9604 5.43236 58.0049 5.50555 58.0321 5.58597C58.0608 5.66881 58.0751 5.75608 58.0746 5.84393C58.0741 5.96145 58.0546 6.07807 58.0167 6.1889C57.9768 6.30241 57.9148 6.40607 57.8339 6.49329C57.7529 6.58045 57.6551 6.64922 57.5465 6.69507C57.419 6.74882 57.2817 6.77512 57.1439 6.77248H56.7521L57.0261 5.17651ZM58.7799 7.31576H59.3925L59.8499 4.64454H59.2373L58.7799 7.31576ZM60.8041 5.43125C60.8825 5.33813 60.9788 5.26197 61.0858 5.20715C61.1964 5.15235 61.3173 5.1237 61.4402 5.12332C61.5488 5.1208 61.6569 5.14628 61.7537 5.19747C61.8336 5.24143 61.9022 5.30443 61.954 5.38124L62.3975 4.96857C62.2961 4.83348 62.1589 4.73109 62.0026 4.67355C61.8239 4.60438 61.6344 4.57047 61.4433 4.5736C61.2328 4.57116 61.0243 4.61514 60.8323 4.70257C60.6484 4.78575 60.483 4.90576 60.3452 5.05561C60.2048 5.2073 60.0952 5.38588 60.022 5.58112C59.9446 5.78675 59.9062 6.00551 59.9078 6.22595C59.9052 6.39174 59.9359 6.55631 59.9969 6.70961C60.0548 6.84884 60.1408 6.97369 60.2494 7.07555C60.3626 7.17921 60.4958 7.25816 60.6397 7.30769C60.8031 7.36282 60.9747 7.39006 61.1473 7.38827C61.4797 7.38811 61.8075 7.30806 62.1046 7.1545L62.3427 5.74233H61.2835L61.1908 6.25983H61.6969L61.6139 6.76121C61.5591 6.78919 61.5007 6.80927 61.4402 6.82081C61.3726 6.8324 61.3045 6.83936 61.2364 6.84178C61.136 6.84336 61.0361 6.82587 60.9419 6.79019C60.861 6.75826 60.7872 6.7094 60.7257 6.64669C60.6668 6.58435 60.6218 6.50952 60.5941 6.42747C60.5639 6.34004 60.549 6.24782 60.55 6.15507C60.548 5.89036 60.6381 5.63361 60.8041 5.43125ZM62.4759 7.31734H63.0885L63.5459 4.64454H62.9333L62.4759 7.31734ZM64.0709 7.31734H64.6804L65.0456 5.18619H65.7565L65.8492 4.64615H63.8015L63.7072 5.18619H64.4325L64.0709 7.31734ZM66.974 6.78376L67.0636 7.31576H67.7075L67.2152 4.64454H66.6109L64.9575 7.31734H65.6551L65.9681 6.7854L66.974 6.78376ZM66.7768 5.33291L66.9131 6.2808H66.2329L66.7768 5.33291ZM68.6443 6.77085L69.0095 4.64615H68.3969L67.9395 7.31734H69.5688L69.663 6.76922L68.6443 6.77085ZM58.029 2.96315H59.0007L59.0882 2.44729H58.1171L58.2155 1.87823H59.2465L59.3392 1.34303H57.7063L57.2489 4.01583H57.8508L58.029 2.96315ZM59.3264 3.24687C59.3244 3.36654 59.3495 3.48508 59.3986 3.59347C59.4458 3.69646 59.5164 3.78649 59.604 3.85624C59.7013 3.92944 59.8104 3.98404 59.9267 4.01744C60.064 4.05784 60.2064 4.07739 60.3498 4.07547C60.5096 4.07779 60.6684 4.05218 60.8195 3.99971C60.949 3.95541 61.0684 3.88457 61.1703 3.79148C61.2728 3.69838 61.3552 3.58495 61.4136 3.45806C61.4766 3.32103 61.5212 3.17562 61.5452 3.02602L61.8321 1.33496H61.2302L60.948 2.96153C60.9357 3.02986 60.9183 3.0972 60.8963 3.16304C60.8748 3.2292 60.842 3.29087 60.7995 3.3452C60.7544 3.40101 60.6981 3.44613 60.6346 3.47741C60.5547 3.51374 60.4671 3.53082 60.3795 3.52737C60.3103 3.52901 60.2422 3.51754 60.1772 3.49352C60.126 3.47373 60.0804 3.44231 60.0425 3.40162C60.0081 3.36316 59.9825 3.31751 59.9672 3.26783C59.9513 3.21572 59.9431 3.1613 59.9436 3.10662C59.9436 3.08405 59.9436 3.05826 59.9436 3.03086C59.9436 3.00422 59.9467 2.97767 59.9533 2.95187L60.2304 1.3398H59.6255L59.3408 3.01474C59.3408 3.05182 59.331 3.09212 59.3264 3.13081C59.3218 3.16949 59.3249 3.1969 59.3249 3.23237L59.3264 3.24687ZM63.4301 4.0126L63.5254 3.4645H62.5056L62.8723 1.3398H62.2598L61.8019 4.01099L63.4301 4.0126ZM65.4512 3.4645H64.431L64.7977 1.3398H64.1851L63.7277 4.01099H65.357L65.4512 3.4645Z" fill="#376EB3"/>
</svg>
