<svg width="185" height="57" viewBox="0 0 185 57" fill="none" xmlns="http://www.w3.org/2000/svg">
<path d="M175.483 7.50456C62.0609 -0.858445 24.5781 2.39383 10.9479 12.1507C-3.71146 22.6443 -4.14253 46.9965 23.1177 51.178C50.6645 55.4035 145.789 60.4702 171.589 48.855C184.732 42.9377 186.451 31.9783 181.324 24.2306C175.483 15.403 171.589 10.7568 130.698 1" stroke="#F73E49" stroke-width="2" stroke-linecap="round"/>
<path d="M29.5722 34.176C29.3909 34.176 29.2415 34.112 29.1242 33.984C29.0069 33.856 28.9482 33.7013 28.9482 33.52V24.096C28.9482 23.9147 29.0069 23.76 29.1242 23.632C29.2522 23.504 29.4122 23.44 29.6042 23.44H36.2922C36.4842 23.44 36.6389 23.504 36.7562 23.632C36.8842 23.76 36.9482 23.9147 36.9482 24.096V33.52C36.9482 33.7013 36.8895 33.856 36.7722 33.984C36.6549 34.112 36.5055 34.176 36.3242 34.176C36.1535 34.176 36.0042 34.112 35.8762 33.984C35.7589 33.856 35.7002 33.7013 35.7002 33.52V24.56H30.1962V33.52C30.1962 33.7013 30.1322 33.856 30.0042 33.984C29.8869 34.112 29.7429 34.176 29.5722 34.176ZM43.8723 26.032C44.5976 26.032 45.2536 26.208 45.8403 26.56C46.427 26.912 46.8856 27.3973 47.2163 28.016C47.5576 28.6347 47.7283 29.328 47.7283 30.096C47.7283 30.864 47.5576 31.5627 47.2163 32.192C46.8856 32.8107 46.427 33.296 45.8403 33.648C45.2536 34 44.5976 34.176 43.8723 34.176C43.275 34.176 42.7256 34.0587 42.2243 33.824C41.723 33.5893 41.3176 33.2693 41.0083 32.864V36.432C41.0083 36.6133 40.9496 36.7627 40.8323 36.88C40.715 37.008 40.571 37.072 40.4003 37.072C40.219 37.072 40.0696 37.008 39.9523 36.88C39.835 36.7627 39.7763 36.6133 39.7763 36.432V26.64C39.7763 26.4587 39.835 26.3093 39.9523 26.192C40.0696 26.0747 40.219 26.016 40.4003 26.016C40.571 26.016 40.715 26.08 40.8323 26.208C40.9496 26.3253 41.0083 26.4693 41.0083 26.64V27.344C41.3176 26.9387 41.723 26.6187 42.2243 26.384C42.7256 26.1493 43.275 26.032 43.8723 26.032ZM43.6963 33.04C44.219 33.04 44.6883 32.912 45.1043 32.656C45.531 32.4 45.8616 32.0533 46.0963 31.616C46.3416 31.168 46.4643 30.6667 46.4643 30.112C46.4643 29.5573 46.3416 29.056 46.0963 28.608C45.8616 28.16 45.531 27.808 45.1043 27.552C44.6883 27.296 44.219 27.168 43.6963 27.168C42.8856 27.168 42.2296 27.44 41.7283 27.984C41.2376 28.5173 40.9923 29.2213 40.9923 30.096C40.9923 30.9813 41.2376 31.696 41.7283 32.24C42.2296 32.7733 42.8856 33.04 43.6963 33.04ZM56.0274 26.032C56.1981 26.032 56.3421 26.096 56.4594 26.224C56.5768 26.3413 56.6354 26.4907 56.6354 26.672V33.536C56.6354 33.7173 56.5714 33.872 56.4434 34C56.3261 34.1173 56.1821 34.176 56.0114 34.176C55.8408 34.176 55.6968 34.1173 55.5794 34C55.4621 33.872 55.4034 33.7173 55.4034 33.536V28.304L51.1634 33.824C50.9608 34.0587 50.7688 34.176 50.5874 34.176C50.4168 34.176 50.2728 34.1173 50.1554 34C50.0381 33.872 49.9794 33.7173 49.9794 33.536V26.672C49.9794 26.4907 50.0381 26.3413 50.1554 26.224C50.2728 26.096 50.4221 26.032 50.6034 26.032C50.7741 26.032 50.9181 26.096 51.0354 26.224C51.1528 26.3413 51.2114 26.4907 51.2114 26.672V32.032L55.4514 26.4C55.5474 26.272 55.6381 26.1813 55.7234 26.128C55.8194 26.064 55.9208 26.032 56.0274 26.032ZM62.9659 34.176C62.2193 34.176 61.5313 33.9947 60.9019 33.632C60.2833 33.2693 59.7926 32.7787 59.4299 32.16C59.0673 31.5307 58.8859 30.8427 58.8859 30.096C58.8859 29.3493 59.0673 28.6667 59.4299 28.048C59.7926 27.4293 60.2833 26.9387 60.9019 26.576C61.5313 26.2133 62.2193 26.032 62.9659 26.032C63.6486 26.032 64.2619 26.1813 64.8059 26.48C65.3606 26.768 65.8033 27.1627 66.1339 27.664C66.2086 27.7707 66.2459 27.8827 66.2459 28C66.2459 28.1493 66.1873 28.2827 66.0699 28.4C65.9633 28.5067 65.8353 28.56 65.6859 28.56C65.5153 28.56 65.3659 28.4853 65.2379 28.336C64.6086 27.5573 63.8566 27.168 62.9819 27.168C62.4593 27.168 61.9793 27.296 61.5419 27.552C61.1153 27.808 60.7739 28.16 60.5179 28.608C60.2726 29.056 60.1499 29.552 60.1499 30.096C60.1499 30.6507 60.2726 31.152 60.5179 31.6C60.7633 32.048 61.0993 32.4 61.5259 32.656C61.9633 32.912 62.4486 33.04 62.9819 33.04C63.8566 33.04 64.6086 32.6507 65.2379 31.872C65.3659 31.7333 65.5099 31.664 65.6699 31.664C65.8299 31.664 65.9633 31.7173 66.0699 31.824C66.1873 31.9307 66.2459 32.064 66.2459 32.224C66.2459 32.3307 66.2086 32.4427 66.1339 32.56C65.7926 33.0507 65.3499 33.4453 64.8059 33.744C64.2619 34.032 63.6486 34.176 62.9659 34.176ZM71.6222 26.032C72.3689 26.032 73.0515 26.2133 73.6702 26.576C74.2995 26.9387 74.7955 27.4293 75.1582 28.048C75.5209 28.6667 75.7022 29.3493 75.7022 30.096C75.7022 30.832 75.5209 31.5147 75.1582 32.144C74.7955 32.7627 74.2995 33.2533 73.6702 33.616C73.0409 33.9787 72.3529 34.16 71.6062 34.16C70.8595 34.16 70.1769 33.9787 69.5582 33.616C68.9395 33.2533 68.4489 32.7627 68.0862 32.144C67.7235 31.5147 67.5422 30.832 67.5422 30.096C67.5422 29.3493 67.7235 28.6667 68.0862 28.048C68.4489 27.4187 68.9395 26.928 69.5582 26.576C70.1875 26.2133 70.8755 26.032 71.6222 26.032ZM71.6222 27.168C71.0889 27.168 70.6035 27.296 70.1662 27.552C69.7395 27.808 69.4035 28.16 69.1582 28.608C68.9235 29.056 68.8062 29.5573 68.8062 30.112C68.8062 30.656 68.9289 31.152 69.1742 31.6C69.4195 32.0373 69.7555 32.384 70.1822 32.64C70.6089 32.896 71.0835 33.024 71.6062 33.024C72.1289 33.024 72.6035 32.896 73.0302 32.64C73.4675 32.384 73.8089 32.0373 74.0542 31.6C74.3102 31.152 74.4382 30.656 74.4382 30.112C74.4382 29.5573 74.3155 29.056 74.0702 28.608C73.8249 28.16 73.4835 27.808 73.0462 27.552C72.6195 27.296 72.1449 27.168 71.6222 27.168ZM81.2918 26.032C81.9745 26.032 82.5825 26.1867 83.1158 26.496C83.6598 26.8053 84.0811 27.232 84.3798 27.776C84.6891 28.32 84.8438 28.9387 84.8438 29.632V29.712C84.8438 30.224 84.5931 30.48 84.0918 30.48H78.5878C78.6731 31.248 78.9771 31.8667 79.4998 32.336C80.0225 32.8053 80.6731 33.04 81.4518 33.04C82.2198 33.04 82.8971 32.7893 83.4838 32.288C83.6225 32.1707 83.7611 32.112 83.8998 32.112C84.0491 32.112 84.1771 32.1653 84.2838 32.272C84.3905 32.368 84.4438 32.496 84.4438 32.656C84.4438 32.7627 84.4225 32.8587 84.3798 32.944C84.3371 33.0187 84.2571 33.1093 84.1398 33.216C83.3718 33.856 82.4705 34.176 81.4358 34.176C80.6571 34.176 79.9531 34 79.3238 33.648C78.6945 33.296 78.1985 32.8107 77.8358 32.192C77.4838 31.5733 77.3078 30.88 77.3078 30.112C77.3078 29.3653 77.4838 28.6827 77.8358 28.064C78.1878 27.4347 78.6678 26.9387 79.2758 26.576C79.8945 26.2133 80.5665 26.032 81.2918 26.032ZM81.2598 27.152C80.5985 27.152 80.0278 27.36 79.5478 27.776C79.0785 28.1813 78.7745 28.72 78.6358 29.392H83.5798C83.5585 28.7307 83.3345 28.192 82.9078 27.776C82.4811 27.36 81.9318 27.152 81.2598 27.152ZM93.9294 32.912C94.1108 32.912 94.2601 32.976 94.3774 33.104C94.5054 33.2213 94.5694 33.3707 94.5694 33.552V35.792C94.5694 35.9733 94.5108 36.1227 94.3934 36.24C94.2761 36.368 94.1321 36.432 93.9614 36.432C93.7801 36.432 93.6308 36.368 93.5134 36.24C93.3961 36.1227 93.3374 35.9733 93.3374 35.792V34H87.1454V35.792C87.1454 35.9733 87.0868 36.1227 86.9694 36.24C86.8521 36.368 86.7081 36.432 86.5374 36.432C86.3668 36.432 86.2174 36.368 86.0894 36.24C85.9721 36.1227 85.9134 35.9733 85.9134 35.792V33.552C85.9134 33.3707 85.9721 33.2213 86.0894 33.104C86.2174 32.976 86.3721 32.912 86.5534 32.912H86.7134C87.2468 32.3787 87.6361 31.632 87.8814 30.672C88.1268 29.7013 88.2494 28.4267 88.2494 26.848V26.832C88.2494 26.6613 88.3081 26.5173 88.4254 26.4C88.5534 26.272 88.7081 26.208 88.8894 26.208H92.6334C92.8148 26.208 92.9641 26.272 93.0814 26.4C93.2094 26.5173 93.2734 26.6667 93.2734 26.848V32.912H93.9294ZM89.4814 27.312C89.4708 28.784 89.3641 29.9573 89.1614 30.832C88.9588 31.7067 88.6228 32.4 88.1534 32.912H92.0414V27.312H89.4814ZM102.715 26.032C102.886 26.032 103.03 26.096 103.147 26.224C103.264 26.3413 103.323 26.4907 103.323 26.672V33.536C103.323 33.7173 103.259 33.872 103.131 34C103.014 34.1173 102.87 34.176 102.699 34.176C102.528 34.176 102.384 34.1173 102.267 34C102.15 33.872 102.091 33.7173 102.091 33.536V28.304L97.8509 33.824C97.6483 34.0587 97.4563 34.176 97.2749 34.176C97.1043 34.176 96.9603 34.1173 96.8429 34C96.7256 33.872 96.6669 33.7173 96.6669 33.536V26.672C96.6669 26.4907 96.7256 26.3413 96.8429 26.224C96.9603 26.096 97.1096 26.032 97.2909 26.032C97.4616 26.032 97.6056 26.096 97.7229 26.224C97.8403 26.3413 97.8989 26.4907 97.8989 26.672V32.032L102.139 26.4C102.235 26.272 102.326 26.1813 102.411 26.128C102.507 26.064 102.608 26.032 102.715 26.032ZM112.069 26.032C112.24 26.032 112.384 26.096 112.501 26.224C112.619 26.3413 112.677 26.4853 112.677 26.656V33.552C112.677 33.7227 112.619 33.872 112.501 34C112.384 34.1173 112.24 34.176 112.069 34.176C111.899 34.176 111.755 34.1173 111.637 34C111.52 33.8827 111.461 33.7333 111.461 33.552V30.4H107.461V33.552C107.461 33.7333 107.403 33.8827 107.285 34C107.168 34.1173 107.024 34.176 106.853 34.176C106.672 34.176 106.523 34.1173 106.405 34C106.288 33.8827 106.229 33.7333 106.229 33.552V26.656C106.229 26.4747 106.288 26.3253 106.405 26.208C106.523 26.0907 106.672 26.032 106.853 26.032C107.024 26.032 107.168 26.096 107.285 26.224C107.403 26.3413 107.461 26.4853 107.461 26.656V29.312H111.461V26.656C111.461 26.4747 111.515 26.3253 111.621 26.208C111.739 26.0907 111.888 26.032 112.069 26.032ZM121.637 26.032C121.807 26.032 121.951 26.096 122.069 26.224C122.186 26.3413 122.245 26.4907 122.245 26.672V33.536C122.245 33.7173 122.181 33.872 122.053 34C121.935 34.1173 121.791 34.176 121.621 34.176C121.45 34.176 121.306 34.1173 121.189 34C121.071 33.872 121.013 33.7173 121.013 33.536V28.304L116.773 33.824C116.57 34.0587 116.378 34.176 116.197 34.176C116.026 34.176 115.882 34.1173 115.765 34C115.647 33.872 115.589 33.7173 115.589 33.536V26.672C115.589 26.4907 115.647 26.3413 115.765 26.224C115.882 26.096 116.031 26.032 116.213 26.032C116.383 26.032 116.527 26.096 116.645 26.224C116.762 26.3413 116.821 26.4907 116.821 26.672V32.032L121.061 26.4C121.157 26.272 121.247 26.1813 121.333 26.128C121.429 26.064 121.53 26.032 121.637 26.032ZM127.407 34.176C127.237 34.176 127.093 34.1173 126.975 34C126.858 33.872 126.799 33.7173 126.799 33.536V27.312H124.527C124.367 27.312 124.229 27.2587 124.111 27.152C124.005 27.0453 123.951 26.912 123.951 26.752C123.951 26.6027 124.005 26.4747 124.111 26.368C124.229 26.2613 124.367 26.208 124.527 26.208H130.287C130.447 26.208 130.581 26.2613 130.687 26.368C130.794 26.4747 130.847 26.6027 130.847 26.752C130.847 26.912 130.794 27.0453 130.687 27.152C130.581 27.2587 130.447 27.312 130.287 27.312H128.015V33.536C128.015 33.7173 127.957 33.872 127.839 34C127.722 34.1173 127.578 34.176 127.407 34.176ZM133.197 26.032C133.368 26.032 133.512 26.096 133.629 26.224C133.747 26.3413 133.805 26.4907 133.805 26.672V28.72H135.997C136.904 28.72 137.624 28.96 138.157 29.44C138.701 29.92 138.973 30.56 138.973 31.36C138.973 32.16 138.701 32.8 138.157 33.28C137.624 33.76 136.904 34 135.997 34H133.213C133.032 34 132.877 33.9413 132.749 33.824C132.632 33.696 132.573 33.5413 132.573 33.36V26.672C132.573 26.4907 132.632 26.3413 132.749 26.224C132.867 26.096 133.016 26.032 133.197 26.032ZM133.805 29.824V32.912H135.917C136.483 32.912 136.92 32.7733 137.229 32.496C137.549 32.2187 137.709 31.8453 137.709 31.376C137.709 30.9067 137.549 30.5333 137.229 30.256C136.909 29.968 136.467 29.824 135.901 29.824H133.805ZM144.747 34.176C144.001 34.176 143.313 33.9947 142.683 33.632C142.065 33.2693 141.574 32.7787 141.211 32.16C140.849 31.5307 140.667 30.8427 140.667 30.096C140.667 29.3493 140.849 28.6667 141.211 28.048C141.574 27.4293 142.065 26.9387 142.683 26.576C143.313 26.2133 144.001 26.032 144.747 26.032C145.43 26.032 146.043 26.1813 146.587 26.48C147.142 26.768 147.585 27.1627 147.915 27.664C147.99 27.7707 148.027 27.8827 148.027 28C148.027 28.1493 147.969 28.2827 147.851 28.4C147.745 28.5067 147.617 28.56 147.467 28.56C147.297 28.56 147.147 28.4853 147.019 28.336C146.39 27.5573 145.638 27.168 144.763 27.168C144.241 27.168 143.761 27.296 143.323 27.552C142.897 27.808 142.555 28.16 142.299 28.608C142.054 29.056 141.931 29.552 141.931 30.096C141.931 30.6507 142.054 31.152 142.299 31.6C142.545 32.048 142.881 32.4 143.307 32.656C143.745 32.912 144.23 33.04 144.763 33.04C145.638 33.04 146.39 32.6507 147.019 31.872C147.147 31.7333 147.291 31.664 147.451 31.664C147.611 31.664 147.745 31.7173 147.851 31.824C147.969 31.9307 148.027 32.064 148.027 32.224C148.027 32.3307 147.99 32.4427 147.915 32.56C147.574 33.0507 147.131 33.4453 146.587 33.744C146.043 34.032 145.43 34.176 144.747 34.176ZM155.419 26.208C155.601 26.208 155.75 26.272 155.867 26.4C155.995 26.5173 156.059 26.6667 156.059 26.848V33.536C156.059 33.7173 156.001 33.872 155.883 34C155.766 34.1173 155.622 34.176 155.451 34.176C155.281 34.176 155.131 34.1173 155.003 34C154.886 33.872 154.827 33.7173 154.827 33.536V31.488H152.635C152.507 31.488 152.411 31.4827 152.347 31.472L150.235 33.952C150.097 34.1013 149.937 34.176 149.755 34.176C149.585 34.176 149.441 34.1173 149.323 34C149.206 33.8827 149.147 33.7387 149.147 33.568C149.147 33.3973 149.206 33.264 149.323 33.168L151.115 31.184C150.646 30.9707 150.283 30.6667 150.027 30.272C149.771 29.8667 149.643 29.3973 149.643 28.864C149.643 28.064 149.915 27.424 150.459 26.944C151.003 26.4533 151.729 26.208 152.635 26.208H155.419ZM154.827 27.312H152.731C152.166 27.312 151.718 27.4507 151.387 27.728C151.067 27.9947 150.907 28.368 150.907 28.848C150.907 29.3173 151.073 29.696 151.403 29.984C151.734 30.2613 152.177 30.4 152.731 30.4H154.827V27.312Z" fill="#F73E49"/>
</svg>
