<svg width="30" height="30" viewBox="0 0 30 30" fill="none" xmlns="http://www.w3.org/2000/svg">
<path d="M0.599918 15.078C0.117624 19.2526 1.40424 23.0112 3.9503 25.6394C6.49492 28.2661 10.3313 29.7979 15.0147 29.4515C19.7352 29.1022 23.3482 27.4697 25.7793 24.9621C28.2091 22.4558 29.5 19.0328 29.5 15.0206C29.5 7.10556 22.798 1.5621 14.9897 0.587291C11.1868 0.11253 7.8506 1.60864 5.32549 4.29067C2.79347 6.98006 1.08766 10.8562 0.599918 15.078Z" stroke="#376EB3"/>
<path d="M8 9C12.4254 9 21.341 9.4 21.6 11" stroke="#376EB3" stroke-width="1.5" stroke-linecap="round"/>
<path d="M8 14.5C10.4 13.5 18.8 15 22 15" stroke="#376EB3" stroke-width="1.5" stroke-linecap="round"/>
<path d="M8 19C11.2 20.5 20.4 20 22 20" stroke="#376EB3" stroke-width="1.5" stroke-linecap="round"/>
</svg>
