<svg width="32" height="32" viewBox="0 0 32 32" fill="none" xmlns="http://www.w3.org/2000/svg">
<path d="M14.0062 3.62099C3.01047 -2.49024 -5.6644 28.5685 11.9136 27.2534C12.4843 27.2148 12.4843 26.3251 11.9136 26.3638C-3.15326 27.4081 2.51585 0.101207 13.816 4.08513C14.0823 4.16249 14.2345 3.73703 14.0062 3.62099Z" fill="#376EB3" stroke="#376EB3" stroke-width="0.7"/>
<path d="M21.4632 3.64928C21.7428 3.45204 21.7428 2.89978 21.3433 2.86033C20.2647 2.66309 18.9463 3.29425 18.1073 3.88597C17.7877 4.12266 17.8276 4.47769 18.1073 4.71437C18.7465 5.18775 19.4257 5.70057 20.0649 6.17394C20.3845 6.45007 20.6642 6.64731 20.784 6.72621C21.2235 7.00234 21.7428 6.33173 21.3433 6.01615C20.824 5.62167 20.3046 5.18775 19.7852 4.79327C19.6254 4.63548 19.5056 4.43824 19.3458 4.28045C19.6254 4.1621 19.9051 4.08321 20.1848 4.00431C20.1049 4.241 20.2647 4.55658 20.6243 4.55658C23.301 4.55658 25.7779 5.18775 27.7356 7.08124C29.7731 9.09307 30.1726 12.1305 30.0527 14.8524C29.9329 17.6138 29.014 20.2568 27.2162 22.387C25.5382 24.3199 23.1412 25.4639 20.904 26.6474C20.5444 26.8051 20.7841 27.3969 21.1836 27.2785C27.2561 25.2667 30.7718 20.6118 31.0515 14.3002C31.2512 8.30412 27.336 3.92542 21.4632 3.64928Z" fill="#376EB3" stroke="#376EB3" stroke-width="0.7"/>
<path d="M14.9523 26.2748C14.3536 25.4848 13.5886 24.8134 12.7238 24.4974C12.2249 24.2999 12.0253 25.2478 12.5242 25.4058C13.1562 25.6428 13.6551 26.1168 14.154 26.5907C13.6218 27.2621 13.1894 27.9731 12.5907 28.5656C12.3579 28.8026 12.6905 29.3555 12.9566 29.1185C13.6884 28.4866 14.154 27.5387 14.8858 26.9462C15.0853 26.7882 15.1186 26.4723 14.9523 26.2748Z" fill="#376EB3" stroke="#376EB3" stroke-width="0.7"/>
</svg>
